G04 #@! TF.FileFunction,Legend,Bot*
%FSLAX46Y46*%
G04 Gerber Fmt 4.6, Leading zero omitted, Abs format (unit mm)*
G04 Created by KiCad (PCBNEW 4.0.7-e2-6376~58~ubuntu16.04.1) date Wed May  2 00:30:32 2018*
%MOMM*%
%LPD*%
G01*
G04 APERTURE LIST*
%ADD10C,0.100000*%
%ADD11C,0.300000*%
G04 APERTURE END LIST*
D10*
D11*
X158509524Y-60523808D02*
X158604762Y-60809523D01*
X158604762Y-61285713D01*
X158509524Y-61476189D01*
X158414286Y-61571427D01*
X158223810Y-61666666D01*
X158033333Y-61666666D01*
X157842857Y-61571427D01*
X157747619Y-61476189D01*
X157652381Y-61285713D01*
X157557143Y-60904761D01*
X157461905Y-60714285D01*
X157366667Y-60619046D01*
X157176190Y-60523808D01*
X156985714Y-60523808D01*
X156795238Y-60619046D01*
X156700000Y-60714285D01*
X156604762Y-60904761D01*
X156604762Y-61380951D01*
X156700000Y-61666666D01*
X156604762Y-62904761D02*
X156604762Y-63285713D01*
X156700000Y-63476189D01*
X156890476Y-63666666D01*
X157271429Y-63761904D01*
X157938095Y-63761904D01*
X158319048Y-63666666D01*
X158509524Y-63476189D01*
X158604762Y-63285713D01*
X158604762Y-62904761D01*
X158509524Y-62714285D01*
X158319048Y-62523808D01*
X157938095Y-62428570D01*
X157271429Y-62428570D01*
X156890476Y-62523808D01*
X156700000Y-62714285D01*
X156604762Y-62904761D01*
X156604762Y-64619046D02*
X158223810Y-64619046D01*
X158414286Y-64714285D01*
X158509524Y-64809523D01*
X158604762Y-64999999D01*
X158604762Y-65380951D01*
X158509524Y-65571427D01*
X158414286Y-65666666D01*
X158223810Y-65761904D01*
X156604762Y-65761904D01*
X158604762Y-67857142D02*
X157652381Y-67190475D01*
X158604762Y-66714284D02*
X156604762Y-66714284D01*
X156604762Y-67476189D01*
X156700000Y-67666665D01*
X156795238Y-67761904D01*
X156985714Y-67857142D01*
X157271429Y-67857142D01*
X157461905Y-67761904D01*
X157557143Y-67666665D01*
X157652381Y-67476189D01*
X157652381Y-66714284D01*
X158414286Y-69857142D02*
X158509524Y-69761904D01*
X158604762Y-69476189D01*
X158604762Y-69285713D01*
X158509524Y-68999999D01*
X158319048Y-68809523D01*
X158128571Y-68714284D01*
X157747619Y-68619046D01*
X157461905Y-68619046D01*
X157080952Y-68714284D01*
X156890476Y-68809523D01*
X156700000Y-68999999D01*
X156604762Y-69285713D01*
X156604762Y-69476189D01*
X156700000Y-69761904D01*
X156795238Y-69857142D01*
X157557143Y-70714284D02*
X157557143Y-71380951D01*
X158604762Y-71666665D02*
X158604762Y-70714284D01*
X156604762Y-70714284D01*
X156604762Y-71666665D01*
X158414286Y-72523808D02*
X158509524Y-72619047D01*
X158604762Y-72523808D01*
X158509524Y-72428570D01*
X158414286Y-72523808D01*
X158604762Y-72523808D01*
X157366667Y-72523808D02*
X157461905Y-72619047D01*
X157557143Y-72523808D01*
X157461905Y-72428570D01*
X157366667Y-72523808D01*
X157557143Y-72523808D01*
X157557143Y-75666666D02*
X157557143Y-74999999D01*
X158604762Y-74999999D02*
X156604762Y-74999999D01*
X156604762Y-75952380D01*
X156604762Y-76714285D02*
X158223810Y-76714285D01*
X158414286Y-76809524D01*
X158509524Y-76904762D01*
X158604762Y-77095238D01*
X158604762Y-77476190D01*
X158509524Y-77666666D01*
X158414286Y-77761905D01*
X158223810Y-77857143D01*
X156604762Y-77857143D01*
X158509524Y-78714285D02*
X158604762Y-79000000D01*
X158604762Y-79476190D01*
X158509524Y-79666666D01*
X158414286Y-79761904D01*
X158223810Y-79857143D01*
X158033333Y-79857143D01*
X157842857Y-79761904D01*
X157747619Y-79666666D01*
X157652381Y-79476190D01*
X157557143Y-79095238D01*
X157461905Y-78904762D01*
X157366667Y-78809523D01*
X157176190Y-78714285D01*
X156985714Y-78714285D01*
X156795238Y-78809523D01*
X156700000Y-78904762D01*
X156604762Y-79095238D01*
X156604762Y-79571428D01*
X156700000Y-79857143D01*
X157557143Y-80714285D02*
X157557143Y-81380952D01*
X158604762Y-81666666D02*
X158604762Y-80714285D01*
X156604762Y-80714285D01*
X156604762Y-81666666D01*
X156604762Y-82333333D02*
X158604762Y-83666667D01*
X156604762Y-83666667D02*
X158604762Y-82333333D01*
X156509524Y-85857143D02*
X159080952Y-84142857D01*
X157271429Y-86523809D02*
X159271429Y-86523809D01*
X157366667Y-86523809D02*
X157271429Y-86714286D01*
X157271429Y-87095238D01*
X157366667Y-87285714D01*
X157461905Y-87380952D01*
X157652381Y-87476190D01*
X158223810Y-87476190D01*
X158414286Y-87380952D01*
X158509524Y-87285714D01*
X158604762Y-87095238D01*
X158604762Y-86714286D01*
X158509524Y-86523809D01*
X158604762Y-88619048D02*
X158509524Y-88428572D01*
X158414286Y-88333333D01*
X158223810Y-88238095D01*
X157652381Y-88238095D01*
X157461905Y-88333333D01*
X157366667Y-88428572D01*
X157271429Y-88619048D01*
X157271429Y-88904762D01*
X157366667Y-89095238D01*
X157461905Y-89190476D01*
X157652381Y-89285714D01*
X158223810Y-89285714D01*
X158414286Y-89190476D01*
X158509524Y-89095238D01*
X158604762Y-88904762D01*
X158604762Y-88619048D01*
X157271429Y-89952381D02*
X158604762Y-90333334D01*
X157652381Y-90714286D01*
X158604762Y-91095238D01*
X157271429Y-91476191D01*
X158509524Y-93000000D02*
X158604762Y-92809524D01*
X158604762Y-92428572D01*
X158509524Y-92238095D01*
X158319048Y-92142857D01*
X157557143Y-92142857D01*
X157366667Y-92238095D01*
X157271429Y-92428572D01*
X157271429Y-92809524D01*
X157366667Y-93000000D01*
X157557143Y-93095238D01*
X157747619Y-93095238D01*
X157938095Y-92142857D01*
X158604762Y-93952381D02*
X157271429Y-93952381D01*
X157652381Y-93952381D02*
X157461905Y-94047620D01*
X157366667Y-94142858D01*
X157271429Y-94333334D01*
X157271429Y-94523810D01*
X158795238Y-94714286D02*
X158795238Y-96238096D01*
X158509524Y-96619048D02*
X158604762Y-96809525D01*
X158604762Y-97190477D01*
X158509524Y-97380953D01*
X158319048Y-97476191D01*
X158223810Y-97476191D01*
X158033333Y-97380953D01*
X157938095Y-97190477D01*
X157938095Y-96904763D01*
X157842857Y-96714286D01*
X157652381Y-96619048D01*
X157557143Y-96619048D01*
X157366667Y-96714286D01*
X157271429Y-96904763D01*
X157271429Y-97190477D01*
X157366667Y-97380953D01*
X157271429Y-99190477D02*
X158604762Y-99190477D01*
X157271429Y-98333334D02*
X158319048Y-98333334D01*
X158509524Y-98428573D01*
X158604762Y-98619049D01*
X158604762Y-98904763D01*
X158509524Y-99095239D01*
X158414286Y-99190477D01*
X157271429Y-100142858D02*
X159271429Y-100142858D01*
X157366667Y-100142858D02*
X157271429Y-100333335D01*
X157271429Y-100714287D01*
X157366667Y-100904763D01*
X157461905Y-101000001D01*
X157652381Y-101095239D01*
X158223810Y-101095239D01*
X158414286Y-101000001D01*
X158509524Y-100904763D01*
X158604762Y-100714287D01*
X158604762Y-100333335D01*
X158509524Y-100142858D01*
X157271429Y-101952382D02*
X159271429Y-101952382D01*
X157366667Y-101952382D02*
X157271429Y-102142859D01*
X157271429Y-102523811D01*
X157366667Y-102714287D01*
X157461905Y-102809525D01*
X157652381Y-102904763D01*
X158223810Y-102904763D01*
X158414286Y-102809525D01*
X158509524Y-102714287D01*
X158604762Y-102523811D01*
X158604762Y-102142859D01*
X158509524Y-101952382D01*
X158604762Y-104047621D02*
X158509524Y-103857145D01*
X158319048Y-103761906D01*
X156604762Y-103761906D01*
X157271429Y-104619049D02*
X158604762Y-105095240D01*
X157271429Y-105571430D02*
X158604762Y-105095240D01*
X159080952Y-104904764D01*
X159176190Y-104809525D01*
X159271429Y-104619049D01*
X159366667Y-108428574D02*
X159271429Y-108333336D01*
X158985714Y-108142860D01*
X158795238Y-108047622D01*
X158509524Y-107952384D01*
X158033333Y-107857145D01*
X157652381Y-107857145D01*
X157176190Y-107952384D01*
X156890476Y-108047622D01*
X156700000Y-108142860D01*
X156414286Y-108333336D01*
X156319048Y-108428574D01*
X156700000Y-110238098D02*
X156604762Y-110047621D01*
X156604762Y-109761907D01*
X156700000Y-109476193D01*
X156890476Y-109285717D01*
X157080952Y-109190478D01*
X157461905Y-109095240D01*
X157747619Y-109095240D01*
X158128571Y-109190478D01*
X158319048Y-109285717D01*
X158509524Y-109476193D01*
X158604762Y-109761907D01*
X158604762Y-109952383D01*
X158509524Y-110238098D01*
X158414286Y-110333336D01*
X157747619Y-110333336D01*
X157747619Y-109952383D01*
X158604762Y-111190478D02*
X157271429Y-111190478D01*
X156604762Y-111190478D02*
X156700000Y-111095240D01*
X156795238Y-111190478D01*
X156700000Y-111285717D01*
X156604762Y-111190478D01*
X156795238Y-111190478D01*
X157271429Y-111857145D02*
X157271429Y-112619050D01*
X156604762Y-112142859D02*
X158319048Y-112142859D01*
X158509524Y-112238098D01*
X158604762Y-112428574D01*
X158604762Y-112619050D01*
X158604762Y-113285716D02*
X156604762Y-113285716D01*
X157557143Y-113285716D02*
X157557143Y-114428574D01*
X158604762Y-114428574D02*
X156604762Y-114428574D01*
X157271429Y-116238097D02*
X158604762Y-116238097D01*
X157271429Y-115380954D02*
X158319048Y-115380954D01*
X158509524Y-115476193D01*
X158604762Y-115666669D01*
X158604762Y-115952383D01*
X158509524Y-116142859D01*
X158414286Y-116238097D01*
X158604762Y-117190478D02*
X156604762Y-117190478D01*
X157366667Y-117190478D02*
X157271429Y-117380955D01*
X157271429Y-117761907D01*
X157366667Y-117952383D01*
X157461905Y-118047621D01*
X157652381Y-118142859D01*
X158223810Y-118142859D01*
X158414286Y-118047621D01*
X158509524Y-117952383D01*
X158604762Y-117761907D01*
X158604762Y-117380955D01*
X158509524Y-117190478D01*
X159366667Y-118809526D02*
X159271429Y-118904764D01*
X158985714Y-119095241D01*
X158795238Y-119190479D01*
X158509524Y-119285717D01*
X158033333Y-119380955D01*
X157652381Y-119380955D01*
X157176190Y-119285717D01*
X156890476Y-119190479D01*
X156700000Y-119095241D01*
X156414286Y-118904764D01*
X156319048Y-118809526D01*
X165204762Y-78761904D02*
X163204762Y-78761904D01*
X163204762Y-79238095D01*
X163300000Y-79523809D01*
X163490476Y-79714285D01*
X163680952Y-79809524D01*
X164061905Y-79904762D01*
X164347619Y-79904762D01*
X164728571Y-79809524D01*
X164919048Y-79714285D01*
X165109524Y-79523809D01*
X165204762Y-79238095D01*
X165204762Y-78761904D01*
X165204762Y-80761904D02*
X163204762Y-80761904D01*
X165204762Y-81714285D02*
X163204762Y-81714285D01*
X164633333Y-82380952D01*
X163204762Y-83047619D01*
X165204762Y-83047619D01*
X165014286Y-83999999D02*
X165109524Y-84095238D01*
X165204762Y-83999999D01*
X165109524Y-83904761D01*
X165014286Y-83999999D01*
X165204762Y-83999999D01*
X163966667Y-83999999D02*
X164061905Y-84095238D01*
X164157143Y-83999999D01*
X164061905Y-83904761D01*
X163966667Y-83999999D01*
X164157143Y-83999999D01*
X165204762Y-87523810D02*
X165204762Y-86380952D01*
X165204762Y-86952381D02*
X163204762Y-86952381D01*
X163490476Y-86761905D01*
X163680952Y-86571429D01*
X163776190Y-86380952D01*
X163871429Y-89238095D02*
X165204762Y-89238095D01*
X163109524Y-88761905D02*
X164538095Y-88285714D01*
X164538095Y-89523810D01*
X163204762Y-90095238D02*
X163204762Y-91428572D01*
X165204762Y-90571429D01*
X165204762Y-92000000D02*
X163871429Y-93047619D01*
X163871429Y-92000000D02*
X165204762Y-93047619D01*
X164061905Y-94095239D02*
X163966667Y-93904763D01*
X163871429Y-93809524D01*
X163680952Y-93714286D01*
X163585714Y-93714286D01*
X163395238Y-93809524D01*
X163300000Y-93904763D01*
X163204762Y-94095239D01*
X163204762Y-94476191D01*
X163300000Y-94666667D01*
X163395238Y-94761905D01*
X163585714Y-94857144D01*
X163680952Y-94857144D01*
X163871429Y-94761905D01*
X163966667Y-94666667D01*
X164061905Y-94476191D01*
X164061905Y-94095239D01*
X164157143Y-93904763D01*
X164252381Y-93809524D01*
X164442857Y-93714286D01*
X164823810Y-93714286D01*
X165014286Y-93809524D01*
X165109524Y-93904763D01*
X165204762Y-94095239D01*
X165204762Y-94476191D01*
X165109524Y-94666667D01*
X165014286Y-94761905D01*
X164823810Y-94857144D01*
X164442857Y-94857144D01*
X164252381Y-94761905D01*
X164157143Y-94666667D01*
X164061905Y-94476191D01*
X163395238Y-95619048D02*
X163300000Y-95714286D01*
X163204762Y-95904763D01*
X163204762Y-96380953D01*
X163300000Y-96571429D01*
X163395238Y-96666667D01*
X163585714Y-96761906D01*
X163776190Y-96761906D01*
X164061905Y-96666667D01*
X165204762Y-95523810D01*
X165204762Y-96761906D01*
X165204762Y-97619048D02*
X163204762Y-97619048D01*
X164633333Y-98285715D01*
X163204762Y-98952382D01*
X165204762Y-98952382D01*
X165204762Y-99904762D02*
X163204762Y-99904762D01*
X164633333Y-100571429D01*
X163204762Y-101238096D01*
X165204762Y-101238096D01*
X141166667Y-113404762D02*
X141166667Y-114833333D01*
X141261905Y-115119048D01*
X141452381Y-115309524D01*
X141738096Y-115404762D01*
X141928572Y-115404762D01*
X139071428Y-115214286D02*
X139166666Y-115309524D01*
X139452381Y-115404762D01*
X139642857Y-115404762D01*
X139928571Y-115309524D01*
X140119047Y-115119048D01*
X140214286Y-114928571D01*
X140309524Y-114547619D01*
X140309524Y-114261905D01*
X140214286Y-113880952D01*
X140119047Y-113690476D01*
X139928571Y-113500000D01*
X139642857Y-113404762D01*
X139452381Y-113404762D01*
X139166666Y-113500000D01*
X139071428Y-113595238D01*
X138214286Y-115404762D02*
X138214286Y-113404762D01*
X137071428Y-115404762D02*
X137928571Y-114261905D01*
X137071428Y-113404762D02*
X138214286Y-114547619D01*
X135357143Y-114071429D02*
X135357143Y-115404762D01*
X135833333Y-113309524D02*
X136309524Y-114738095D01*
X135071428Y-114738095D01*
X141166667Y-94654762D02*
X141166667Y-96083333D01*
X141261905Y-96369048D01*
X141452381Y-96559524D01*
X141738096Y-96654762D01*
X141928572Y-96654762D01*
X139071428Y-96464286D02*
X139166666Y-96559524D01*
X139452381Y-96654762D01*
X139642857Y-96654762D01*
X139928571Y-96559524D01*
X140119047Y-96369048D01*
X140214286Y-96178571D01*
X140309524Y-95797619D01*
X140309524Y-95511905D01*
X140214286Y-95130952D01*
X140119047Y-94940476D01*
X139928571Y-94750000D01*
X139642857Y-94654762D01*
X139452381Y-94654762D01*
X139166666Y-94750000D01*
X139071428Y-94845238D01*
X138214286Y-96654762D02*
X138214286Y-94654762D01*
X137071428Y-96654762D02*
X137928571Y-95511905D01*
X137071428Y-94654762D02*
X138214286Y-95797619D01*
X136404762Y-94654762D02*
X135166666Y-94654762D01*
X135833333Y-95416667D01*
X135547619Y-95416667D01*
X135357143Y-95511905D01*
X135261905Y-95607143D01*
X135166666Y-95797619D01*
X135166666Y-96273810D01*
X135261905Y-96464286D01*
X135357143Y-96559524D01*
X135547619Y-96654762D01*
X136119047Y-96654762D01*
X136309524Y-96559524D01*
X136404762Y-96464286D01*
X141166667Y-77654762D02*
X141166667Y-79083333D01*
X141261905Y-79369048D01*
X141452381Y-79559524D01*
X141738096Y-79654762D01*
X141928572Y-79654762D01*
X139071428Y-79464286D02*
X139166666Y-79559524D01*
X139452381Y-79654762D01*
X139642857Y-79654762D01*
X139928571Y-79559524D01*
X140119047Y-79369048D01*
X140214286Y-79178571D01*
X140309524Y-78797619D01*
X140309524Y-78511905D01*
X140214286Y-78130952D01*
X140119047Y-77940476D01*
X139928571Y-77750000D01*
X139642857Y-77654762D01*
X139452381Y-77654762D01*
X139166666Y-77750000D01*
X139071428Y-77845238D01*
X138214286Y-79654762D02*
X138214286Y-77654762D01*
X137071428Y-79654762D02*
X137928571Y-78511905D01*
X137071428Y-77654762D02*
X138214286Y-78797619D01*
X136309524Y-77845238D02*
X136214286Y-77750000D01*
X136023809Y-77654762D01*
X135547619Y-77654762D01*
X135357143Y-77750000D01*
X135261905Y-77845238D01*
X135166666Y-78035714D01*
X135166666Y-78226190D01*
X135261905Y-78511905D01*
X136404762Y-79654762D01*
X135166666Y-79654762D01*
X141166667Y-59654762D02*
X141166667Y-61083333D01*
X141261905Y-61369048D01*
X141452381Y-61559524D01*
X141738096Y-61654762D01*
X141928572Y-61654762D01*
X139071428Y-61464286D02*
X139166666Y-61559524D01*
X139452381Y-61654762D01*
X139642857Y-61654762D01*
X139928571Y-61559524D01*
X140119047Y-61369048D01*
X140214286Y-61178571D01*
X140309524Y-60797619D01*
X140309524Y-60511905D01*
X140214286Y-60130952D01*
X140119047Y-59940476D01*
X139928571Y-59750000D01*
X139642857Y-59654762D01*
X139452381Y-59654762D01*
X139166666Y-59750000D01*
X139071428Y-59845238D01*
X138214286Y-61654762D02*
X138214286Y-59654762D01*
X137071428Y-61654762D02*
X137928571Y-60511905D01*
X137071428Y-59654762D02*
X138214286Y-60797619D01*
X135166666Y-61654762D02*
X136309524Y-61654762D01*
X135738095Y-61654762D02*
X135738095Y-59654762D01*
X135928571Y-59940476D01*
X136119047Y-60130952D01*
X136309524Y-60226190D01*
X141928572Y-54404762D02*
X141928572Y-52404762D01*
X141261905Y-53833333D01*
X140595238Y-52404762D01*
X140595238Y-54404762D01*
X139071429Y-52404762D02*
X139071429Y-53833333D01*
X139166667Y-54119048D01*
X139357143Y-54309524D01*
X139642858Y-54404762D01*
X139833334Y-54404762D01*
X136976190Y-54214286D02*
X137071428Y-54309524D01*
X137357143Y-54404762D01*
X137547619Y-54404762D01*
X137833333Y-54309524D01*
X138023809Y-54119048D01*
X138119048Y-53928571D01*
X138214286Y-53547619D01*
X138214286Y-53261905D01*
X138119048Y-52880952D01*
X138023809Y-52690476D01*
X137833333Y-52500000D01*
X137547619Y-52404762D01*
X137357143Y-52404762D01*
X137071428Y-52500000D01*
X136976190Y-52595238D01*
X136119048Y-54404762D02*
X136119048Y-52404762D01*
X134976190Y-54404762D02*
X135833333Y-53261905D01*
X134976190Y-52404762D02*
X136119048Y-53547619D01*
X152678571Y-122250000D02*
X152869048Y-122154762D01*
X153154762Y-122154762D01*
X153440476Y-122250000D01*
X153630952Y-122440476D01*
X153726191Y-122630952D01*
X153821429Y-123011905D01*
X153821429Y-123297619D01*
X153726191Y-123678571D01*
X153630952Y-123869048D01*
X153440476Y-124059524D01*
X153154762Y-124154762D01*
X152964286Y-124154762D01*
X152678571Y-124059524D01*
X152583333Y-123964286D01*
X152583333Y-123297619D01*
X152964286Y-123297619D01*
X150869048Y-122821429D02*
X150869048Y-124154762D01*
X151345238Y-122059524D02*
X151821429Y-123488095D01*
X150583333Y-123488095D01*
X152678571Y-104250000D02*
X152869048Y-104154762D01*
X153154762Y-104154762D01*
X153440476Y-104250000D01*
X153630952Y-104440476D01*
X153726191Y-104630952D01*
X153821429Y-105011905D01*
X153821429Y-105297619D01*
X153726191Y-105678571D01*
X153630952Y-105869048D01*
X153440476Y-106059524D01*
X153154762Y-106154762D01*
X152964286Y-106154762D01*
X152678571Y-106059524D01*
X152583333Y-105964286D01*
X152583333Y-105297619D01*
X152964286Y-105297619D01*
X151916667Y-104154762D02*
X150678571Y-104154762D01*
X151345238Y-104916667D01*
X151059524Y-104916667D01*
X150869048Y-105011905D01*
X150773810Y-105107143D01*
X150678571Y-105297619D01*
X150678571Y-105773810D01*
X150773810Y-105964286D01*
X150869048Y-106059524D01*
X151059524Y-106154762D01*
X151630952Y-106154762D01*
X151821429Y-106059524D01*
X151916667Y-105964286D01*
X152678571Y-86500000D02*
X152869048Y-86404762D01*
X153154762Y-86404762D01*
X153440476Y-86500000D01*
X153630952Y-86690476D01*
X153726191Y-86880952D01*
X153821429Y-87261905D01*
X153821429Y-87547619D01*
X153726191Y-87928571D01*
X153630952Y-88119048D01*
X153440476Y-88309524D01*
X153154762Y-88404762D01*
X152964286Y-88404762D01*
X152678571Y-88309524D01*
X152583333Y-88214286D01*
X152583333Y-87547619D01*
X152964286Y-87547619D01*
X151821429Y-86595238D02*
X151726191Y-86500000D01*
X151535714Y-86404762D01*
X151059524Y-86404762D01*
X150869048Y-86500000D01*
X150773810Y-86595238D01*
X150678571Y-86785714D01*
X150678571Y-86976190D01*
X150773810Y-87261905D01*
X151916667Y-88404762D01*
X150678571Y-88404762D01*
X152678571Y-67500000D02*
X152869048Y-67404762D01*
X153154762Y-67404762D01*
X153440476Y-67500000D01*
X153630952Y-67690476D01*
X153726191Y-67880952D01*
X153821429Y-68261905D01*
X153821429Y-68547619D01*
X153726191Y-68928571D01*
X153630952Y-69119048D01*
X153440476Y-69309524D01*
X153154762Y-69404762D01*
X152964286Y-69404762D01*
X152678571Y-69309524D01*
X152583333Y-69214286D01*
X152583333Y-68547619D01*
X152964286Y-68547619D01*
X150678571Y-69404762D02*
X151821429Y-69404762D01*
X151250000Y-69404762D02*
X151250000Y-67404762D01*
X151440476Y-67690476D01*
X151630952Y-67880952D01*
X151821429Y-67976190D01*
X124250001Y-56892857D02*
X122726191Y-56892857D01*
X119583334Y-56607143D02*
X119297620Y-56702381D01*
X119202381Y-56797619D01*
X119107143Y-56988095D01*
X119107143Y-57273810D01*
X119202381Y-57464286D01*
X119297620Y-57559524D01*
X119488096Y-57654762D01*
X120250001Y-57654762D01*
X120250001Y-55654762D01*
X119583334Y-55654762D01*
X119392858Y-55750000D01*
X119297620Y-55845238D01*
X119202381Y-56035714D01*
X119202381Y-56226190D01*
X119297620Y-56416667D01*
X119392858Y-56511905D01*
X119583334Y-56607143D01*
X120250001Y-56607143D01*
X118345239Y-57083333D02*
X117392858Y-57083333D01*
X118535715Y-57654762D02*
X117869048Y-55654762D01*
X117202381Y-57654762D01*
X116821429Y-55654762D02*
X115678572Y-55654762D01*
X116250000Y-57654762D02*
X116250000Y-55654762D01*
X115107143Y-57083333D02*
X114154762Y-57083333D01*
X115297619Y-57654762D02*
X114630952Y-55654762D01*
X113964285Y-57654762D01*
X124250001Y-53642857D02*
X122726191Y-53642857D01*
X123488096Y-54404762D02*
X123488096Y-52880952D01*
X119583334Y-53357143D02*
X119297620Y-53452381D01*
X119202381Y-53547619D01*
X119107143Y-53738095D01*
X119107143Y-54023810D01*
X119202381Y-54214286D01*
X119297620Y-54309524D01*
X119488096Y-54404762D01*
X120250001Y-54404762D01*
X120250001Y-52404762D01*
X119583334Y-52404762D01*
X119392858Y-52500000D01*
X119297620Y-52595238D01*
X119202381Y-52785714D01*
X119202381Y-52976190D01*
X119297620Y-53166667D01*
X119392858Y-53261905D01*
X119583334Y-53357143D01*
X120250001Y-53357143D01*
X118345239Y-53833333D02*
X117392858Y-53833333D01*
X118535715Y-54404762D02*
X117869048Y-52404762D01*
X117202381Y-54404762D01*
X116821429Y-52404762D02*
X115678572Y-52404762D01*
X116250000Y-54404762D02*
X116250000Y-52404762D01*
X115107143Y-53833333D02*
X114154762Y-53833333D01*
X115297619Y-54404762D02*
X114630952Y-52404762D01*
X113964285Y-54404762D01*
X122345239Y-73142857D02*
X120821429Y-73142857D01*
X117678572Y-72857143D02*
X117392858Y-72952381D01*
X117297619Y-73047619D01*
X117202381Y-73238095D01*
X117202381Y-73523810D01*
X117297619Y-73714286D01*
X117392858Y-73809524D01*
X117583334Y-73904762D01*
X118345239Y-73904762D01*
X118345239Y-71904762D01*
X117678572Y-71904762D01*
X117488096Y-72000000D01*
X117392858Y-72095238D01*
X117297619Y-72285714D01*
X117297619Y-72476190D01*
X117392858Y-72666667D01*
X117488096Y-72761905D01*
X117678572Y-72857143D01*
X118345239Y-72857143D01*
X116440477Y-73333333D02*
X115488096Y-73333333D01*
X116630953Y-73904762D02*
X115964286Y-71904762D01*
X115297619Y-73904762D01*
X114916667Y-71904762D02*
X113773810Y-71904762D01*
X114345238Y-73904762D02*
X114345238Y-71904762D01*
X112059523Y-73904762D02*
X113202381Y-73904762D01*
X112630952Y-73904762D02*
X112630952Y-71904762D01*
X112821428Y-72190476D01*
X113011904Y-72380952D01*
X113202381Y-72476190D01*
X122345239Y-69142857D02*
X120821429Y-69142857D01*
X121583334Y-69904762D02*
X121583334Y-68380952D01*
X117678572Y-68857143D02*
X117392858Y-68952381D01*
X117297619Y-69047619D01*
X117202381Y-69238095D01*
X117202381Y-69523810D01*
X117297619Y-69714286D01*
X117392858Y-69809524D01*
X117583334Y-69904762D01*
X118345239Y-69904762D01*
X118345239Y-67904762D01*
X117678572Y-67904762D01*
X117488096Y-68000000D01*
X117392858Y-68095238D01*
X117297619Y-68285714D01*
X117297619Y-68476190D01*
X117392858Y-68666667D01*
X117488096Y-68761905D01*
X117678572Y-68857143D01*
X118345239Y-68857143D01*
X116440477Y-69333333D02*
X115488096Y-69333333D01*
X116630953Y-69904762D02*
X115964286Y-67904762D01*
X115297619Y-69904762D01*
X114916667Y-67904762D02*
X113773810Y-67904762D01*
X114345238Y-69904762D02*
X114345238Y-67904762D01*
X112059523Y-69904762D02*
X113202381Y-69904762D01*
X112630952Y-69904762D02*
X112630952Y-67904762D01*
X112821428Y-68190476D01*
X113011904Y-68380952D01*
X113202381Y-68476190D01*
X122345239Y-90392857D02*
X120821429Y-90392857D01*
X117678572Y-90107143D02*
X117392858Y-90202381D01*
X117297619Y-90297619D01*
X117202381Y-90488095D01*
X117202381Y-90773810D01*
X117297619Y-90964286D01*
X117392858Y-91059524D01*
X117583334Y-91154762D01*
X118345239Y-91154762D01*
X118345239Y-89154762D01*
X117678572Y-89154762D01*
X117488096Y-89250000D01*
X117392858Y-89345238D01*
X117297619Y-89535714D01*
X117297619Y-89726190D01*
X117392858Y-89916667D01*
X117488096Y-90011905D01*
X117678572Y-90107143D01*
X118345239Y-90107143D01*
X116440477Y-90583333D02*
X115488096Y-90583333D01*
X116630953Y-91154762D02*
X115964286Y-89154762D01*
X115297619Y-91154762D01*
X114916667Y-89154762D02*
X113773810Y-89154762D01*
X114345238Y-91154762D02*
X114345238Y-89154762D01*
X113202381Y-89345238D02*
X113107143Y-89250000D01*
X112916666Y-89154762D01*
X112440476Y-89154762D01*
X112250000Y-89250000D01*
X112154762Y-89345238D01*
X112059523Y-89535714D01*
X112059523Y-89726190D01*
X112154762Y-90011905D01*
X113297619Y-91154762D01*
X112059523Y-91154762D01*
X122345239Y-86142857D02*
X120821429Y-86142857D01*
X121583334Y-86904762D02*
X121583334Y-85380952D01*
X117678572Y-85857143D02*
X117392858Y-85952381D01*
X117297619Y-86047619D01*
X117202381Y-86238095D01*
X117202381Y-86523810D01*
X117297619Y-86714286D01*
X117392858Y-86809524D01*
X117583334Y-86904762D01*
X118345239Y-86904762D01*
X118345239Y-84904762D01*
X117678572Y-84904762D01*
X117488096Y-85000000D01*
X117392858Y-85095238D01*
X117297619Y-85285714D01*
X117297619Y-85476190D01*
X117392858Y-85666667D01*
X117488096Y-85761905D01*
X117678572Y-85857143D01*
X118345239Y-85857143D01*
X116440477Y-86333333D02*
X115488096Y-86333333D01*
X116630953Y-86904762D02*
X115964286Y-84904762D01*
X115297619Y-86904762D01*
X114916667Y-84904762D02*
X113773810Y-84904762D01*
X114345238Y-86904762D02*
X114345238Y-84904762D01*
X113202381Y-85095238D02*
X113107143Y-85000000D01*
X112916666Y-84904762D01*
X112440476Y-84904762D01*
X112250000Y-85000000D01*
X112154762Y-85095238D01*
X112059523Y-85285714D01*
X112059523Y-85476190D01*
X112154762Y-85761905D01*
X113297619Y-86904762D01*
X112059523Y-86904762D01*
X125500001Y-107392857D02*
X123976191Y-107392857D01*
X120833334Y-107107143D02*
X120547620Y-107202381D01*
X120452381Y-107297619D01*
X120357143Y-107488095D01*
X120357143Y-107773810D01*
X120452381Y-107964286D01*
X120547620Y-108059524D01*
X120738096Y-108154762D01*
X121500001Y-108154762D01*
X121500001Y-106154762D01*
X120833334Y-106154762D01*
X120642858Y-106250000D01*
X120547620Y-106345238D01*
X120452381Y-106535714D01*
X120452381Y-106726190D01*
X120547620Y-106916667D01*
X120642858Y-107011905D01*
X120833334Y-107107143D01*
X121500001Y-107107143D01*
X119595239Y-107583333D02*
X118642858Y-107583333D01*
X119785715Y-108154762D02*
X119119048Y-106154762D01*
X118452381Y-108154762D01*
X118071429Y-106154762D02*
X116928572Y-106154762D01*
X117500000Y-108154762D02*
X117500000Y-106154762D01*
X116452381Y-106154762D02*
X115214285Y-106154762D01*
X115880952Y-106916667D01*
X115595238Y-106916667D01*
X115404762Y-107011905D01*
X115309524Y-107107143D01*
X115214285Y-107297619D01*
X115214285Y-107773810D01*
X115309524Y-107964286D01*
X115404762Y-108059524D01*
X115595238Y-108154762D01*
X116166666Y-108154762D01*
X116357143Y-108059524D01*
X116452381Y-107964286D01*
X113880952Y-108821429D02*
X113880952Y-105964286D01*
X111595238Y-106821429D02*
X111595238Y-108154762D01*
X112071428Y-106059524D02*
X112547619Y-107488095D01*
X111309523Y-107488095D01*
X125500001Y-103392857D02*
X123976191Y-103392857D01*
X124738096Y-104154762D02*
X124738096Y-102630952D01*
X120833334Y-103107143D02*
X120547620Y-103202381D01*
X120452381Y-103297619D01*
X120357143Y-103488095D01*
X120357143Y-103773810D01*
X120452381Y-103964286D01*
X120547620Y-104059524D01*
X120738096Y-104154762D01*
X121500001Y-104154762D01*
X121500001Y-102154762D01*
X120833334Y-102154762D01*
X120642858Y-102250000D01*
X120547620Y-102345238D01*
X120452381Y-102535714D01*
X120452381Y-102726190D01*
X120547620Y-102916667D01*
X120642858Y-103011905D01*
X120833334Y-103107143D01*
X121500001Y-103107143D01*
X119595239Y-103583333D02*
X118642858Y-103583333D01*
X119785715Y-104154762D02*
X119119048Y-102154762D01*
X118452381Y-104154762D01*
X118071429Y-102154762D02*
X116928572Y-102154762D01*
X117500000Y-104154762D02*
X117500000Y-102154762D01*
X116452381Y-102154762D02*
X115214285Y-102154762D01*
X115880952Y-102916667D01*
X115595238Y-102916667D01*
X115404762Y-103011905D01*
X115309524Y-103107143D01*
X115214285Y-103297619D01*
X115214285Y-103773810D01*
X115309524Y-103964286D01*
X115404762Y-104059524D01*
X115595238Y-104154762D01*
X116166666Y-104154762D01*
X116357143Y-104059524D01*
X116452381Y-103964286D01*
X113880952Y-104821429D02*
X113880952Y-101964286D01*
X111595238Y-102821429D02*
X111595238Y-104154762D01*
X112071428Y-102059524D02*
X112547619Y-103488095D01*
X111309523Y-103488095D01*
X90585714Y-59757144D02*
X90585714Y-58757144D01*
X92157143Y-58757144D02*
X89157143Y-58757144D01*
X89157143Y-60185715D01*
X89157143Y-61328573D02*
X91585714Y-61328573D01*
X91871429Y-61471430D01*
X92014286Y-61614287D01*
X92157143Y-61900001D01*
X92157143Y-62471430D01*
X92014286Y-62757144D01*
X91871429Y-62900001D01*
X91585714Y-63042858D01*
X89157143Y-63042858D01*
X92014286Y-64328573D02*
X92157143Y-64757144D01*
X92157143Y-65471430D01*
X92014286Y-65757144D01*
X91871429Y-65900001D01*
X91585714Y-66042858D01*
X91300000Y-66042858D01*
X91014286Y-65900001D01*
X90871429Y-65757144D01*
X90728571Y-65471430D01*
X90585714Y-64900001D01*
X90442857Y-64614287D01*
X90300000Y-64471430D01*
X90014286Y-64328573D01*
X89728571Y-64328573D01*
X89442857Y-64471430D01*
X89300000Y-64614287D01*
X89157143Y-64900001D01*
X89157143Y-65614287D01*
X89300000Y-66042858D01*
X90585714Y-67328573D02*
X90585714Y-68328573D01*
X92157143Y-68757144D02*
X92157143Y-67328573D01*
X89157143Y-67328573D01*
X89157143Y-68757144D01*
X89157143Y-69757144D02*
X92157143Y-71757144D01*
X89157143Y-71757144D02*
X92157143Y-69757144D01*
X92157143Y-75185716D02*
X89157143Y-75185716D01*
X89157143Y-76328573D01*
X89300000Y-76614287D01*
X89442857Y-76757144D01*
X89728571Y-76900001D01*
X90157143Y-76900001D01*
X90442857Y-76757144D01*
X90585714Y-76614287D01*
X90728571Y-76328573D01*
X90728571Y-75185716D01*
X89157143Y-78757144D02*
X89157143Y-79328573D01*
X89300000Y-79614287D01*
X89585714Y-79900001D01*
X90157143Y-80042859D01*
X91157143Y-80042859D01*
X91728571Y-79900001D01*
X92014286Y-79614287D01*
X92157143Y-79328573D01*
X92157143Y-78757144D01*
X92014286Y-78471430D01*
X91728571Y-78185716D01*
X91157143Y-78042859D01*
X90157143Y-78042859D01*
X89585714Y-78185716D01*
X89300000Y-78471430D01*
X89157143Y-78757144D01*
X89157143Y-81042858D02*
X92157143Y-81757144D01*
X90014286Y-82328573D01*
X92157143Y-82900001D01*
X89157143Y-83614287D01*
X90585714Y-84757144D02*
X90585714Y-85757144D01*
X92157143Y-86185715D02*
X92157143Y-84757144D01*
X89157143Y-84757144D01*
X89157143Y-86185715D01*
X92157143Y-89185715D02*
X90728571Y-88185715D01*
X92157143Y-87471430D02*
X89157143Y-87471430D01*
X89157143Y-88614287D01*
X89300000Y-88900001D01*
X89442857Y-89042858D01*
X89728571Y-89185715D01*
X90157143Y-89185715D01*
X90442857Y-89042858D01*
X90585714Y-88900001D01*
X90728571Y-88614287D01*
X90728571Y-87471430D01*
X92014286Y-92614287D02*
X92157143Y-93042858D01*
X92157143Y-93757144D01*
X92014286Y-94042858D01*
X91871429Y-94185715D01*
X91585714Y-94328572D01*
X91300000Y-94328572D01*
X91014286Y-94185715D01*
X90871429Y-94042858D01*
X90728571Y-93757144D01*
X90585714Y-93185715D01*
X90442857Y-92900001D01*
X90300000Y-92757144D01*
X90014286Y-92614287D01*
X89728571Y-92614287D01*
X89442857Y-92757144D01*
X89300000Y-92900001D01*
X89157143Y-93185715D01*
X89157143Y-93900001D01*
X89300000Y-94328572D01*
X89157143Y-95614287D02*
X91585714Y-95614287D01*
X91871429Y-95757144D01*
X92014286Y-95900001D01*
X92157143Y-96185715D01*
X92157143Y-96757144D01*
X92014286Y-97042858D01*
X91871429Y-97185715D01*
X91585714Y-97328572D01*
X89157143Y-97328572D01*
X92157143Y-98757144D02*
X89157143Y-98757144D01*
X89157143Y-99900001D01*
X89300000Y-100185715D01*
X89442857Y-100328572D01*
X89728571Y-100471429D01*
X90157143Y-100471429D01*
X90442857Y-100328572D01*
X90585714Y-100185715D01*
X90728571Y-99900001D01*
X90728571Y-98757144D01*
X92157143Y-101757144D02*
X89157143Y-101757144D01*
X89157143Y-102900001D01*
X89300000Y-103185715D01*
X89442857Y-103328572D01*
X89728571Y-103471429D01*
X90157143Y-103471429D01*
X90442857Y-103328572D01*
X90585714Y-103185715D01*
X90728571Y-102900001D01*
X90728571Y-101757144D01*
X92157143Y-106185715D02*
X92157143Y-104757144D01*
X89157143Y-104757144D01*
X90728571Y-107757143D02*
X92157143Y-107757143D01*
X89157143Y-106757143D02*
X90728571Y-107757143D01*
X89157143Y-108757143D01*
X90157143Y-111757143D02*
X92157143Y-112471429D01*
X90157143Y-113185715D01*
X92157143Y-115900000D02*
X92157143Y-114185715D01*
X92157143Y-115042857D02*
X89157143Y-115042857D01*
X89585714Y-114757143D01*
X89871429Y-114471429D01*
X90014286Y-114185715D01*
X91871429Y-117185715D02*
X92014286Y-117328572D01*
X92157143Y-117185715D01*
X92014286Y-117042858D01*
X91871429Y-117185715D01*
X92157143Y-117185715D01*
X89157143Y-119185714D02*
X89157143Y-119471429D01*
X89300000Y-119757143D01*
X89442857Y-119900000D01*
X89728571Y-120042857D01*
X90300000Y-120185714D01*
X91014286Y-120185714D01*
X91585714Y-120042857D01*
X91871429Y-119900000D01*
X92014286Y-119757143D01*
X92157143Y-119471429D01*
X92157143Y-119185714D01*
X92014286Y-118900000D01*
X91871429Y-118757143D01*
X91585714Y-118614286D01*
X91014286Y-118471429D01*
X90300000Y-118471429D01*
X89728571Y-118614286D01*
X89442857Y-118757143D01*
X89300000Y-118900000D01*
X89157143Y-119185714D01*
X94100000Y-72828572D02*
X93957143Y-72542858D01*
X93957143Y-72114287D01*
X94100000Y-71685715D01*
X94385714Y-71400001D01*
X94671429Y-71257144D01*
X95242857Y-71114287D01*
X95671429Y-71114287D01*
X96242857Y-71257144D01*
X96528571Y-71400001D01*
X96814286Y-71685715D01*
X96957143Y-72114287D01*
X96957143Y-72400001D01*
X96814286Y-72828572D01*
X96671429Y-72971429D01*
X95671429Y-72971429D01*
X95671429Y-72400001D01*
X96957143Y-75685715D02*
X96957143Y-74257144D01*
X93957143Y-74257144D01*
X95385714Y-76685715D02*
X95385714Y-77685715D01*
X96957143Y-78114286D02*
X96957143Y-76685715D01*
X93957143Y-76685715D01*
X93957143Y-78114286D01*
X96957143Y-79400001D02*
X93957143Y-79400001D01*
X96814286Y-80685715D02*
X96957143Y-81114286D01*
X96957143Y-81828572D01*
X96814286Y-82114286D01*
X96671429Y-82257143D01*
X96385714Y-82400000D01*
X96100000Y-82400000D01*
X95814286Y-82257143D01*
X95671429Y-82114286D01*
X95528571Y-81828572D01*
X95385714Y-81257143D01*
X95242857Y-80971429D01*
X95100000Y-80828572D01*
X94814286Y-80685715D01*
X94528571Y-80685715D01*
X94242857Y-80828572D01*
X94100000Y-80971429D01*
X93957143Y-81257143D01*
X93957143Y-81971429D01*
X94100000Y-82400000D01*
X93957143Y-84257143D02*
X93957143Y-84828572D01*
X94100000Y-85114286D01*
X94385714Y-85400000D01*
X94957143Y-85542858D01*
X95957143Y-85542858D01*
X96528571Y-85400000D01*
X96814286Y-85114286D01*
X96957143Y-84828572D01*
X96957143Y-84257143D01*
X96814286Y-83971429D01*
X96528571Y-83685715D01*
X95957143Y-83542858D01*
X94957143Y-83542858D01*
X94385714Y-83685715D01*
X94100000Y-83971429D01*
X93957143Y-84257143D01*
X96957143Y-86828572D02*
X93957143Y-86828572D01*
X96957143Y-88542857D01*
X93957143Y-88542857D01*
X96814286Y-92114286D02*
X96957143Y-92542857D01*
X96957143Y-93257143D01*
X96814286Y-93542857D01*
X96671429Y-93685714D01*
X96385714Y-93828571D01*
X96100000Y-93828571D01*
X95814286Y-93685714D01*
X95671429Y-93542857D01*
X95528571Y-93257143D01*
X95385714Y-92685714D01*
X95242857Y-92400000D01*
X95100000Y-92257143D01*
X94814286Y-92114286D01*
X94528571Y-92114286D01*
X94242857Y-92257143D01*
X94100000Y-92400000D01*
X93957143Y-92685714D01*
X93957143Y-93400000D01*
X94100000Y-93828571D01*
X93957143Y-94685714D02*
X93957143Y-96400000D01*
X96957143Y-95542857D02*
X93957143Y-95542857D01*
X93957143Y-97971428D02*
X93957143Y-98542857D01*
X94100000Y-98828571D01*
X94385714Y-99114285D01*
X94957143Y-99257143D01*
X95957143Y-99257143D01*
X96528571Y-99114285D01*
X96814286Y-98828571D01*
X96957143Y-98542857D01*
X96957143Y-97971428D01*
X96814286Y-97685714D01*
X96528571Y-97400000D01*
X95957143Y-97257143D01*
X94957143Y-97257143D01*
X94385714Y-97400000D01*
X94100000Y-97685714D01*
X93957143Y-97971428D01*
X96957143Y-102257142D02*
X95528571Y-101257142D01*
X96957143Y-100542857D02*
X93957143Y-100542857D01*
X93957143Y-101685714D01*
X94100000Y-101971428D01*
X94242857Y-102114285D01*
X94528571Y-102257142D01*
X94957143Y-102257142D01*
X95242857Y-102114285D01*
X95385714Y-101971428D01*
X95528571Y-101685714D01*
X95528571Y-100542857D01*
X93957143Y-103114285D02*
X93957143Y-104828571D01*
X96957143Y-103971428D02*
X93957143Y-103971428D01*
X93957143Y-106399999D02*
X93957143Y-106971428D01*
X94100000Y-107257142D01*
X94385714Y-107542856D01*
X94957143Y-107685714D01*
X95957143Y-107685714D01*
X96528571Y-107542856D01*
X96814286Y-107257142D01*
X96957143Y-106971428D01*
X96957143Y-106399999D01*
X96814286Y-106114285D01*
X96528571Y-105828571D01*
X95957143Y-105685714D01*
X94957143Y-105685714D01*
X94385714Y-105828571D01*
X94100000Y-106114285D01*
X93957143Y-106399999D01*
X100185714Y-76471429D02*
X100185714Y-77471429D01*
X101757143Y-77900000D02*
X101757143Y-76471429D01*
X98757143Y-76471429D01*
X98757143Y-77900000D01*
X101757143Y-80614286D02*
X101757143Y-79185715D01*
X98757143Y-79185715D01*
X100185714Y-81614286D02*
X100185714Y-82614286D01*
X101757143Y-83042857D02*
X101757143Y-81614286D01*
X98757143Y-81614286D01*
X98757143Y-83042857D01*
X101471429Y-86042857D02*
X101614286Y-85900000D01*
X101757143Y-85471429D01*
X101757143Y-85185715D01*
X101614286Y-84757143D01*
X101328571Y-84471429D01*
X101042857Y-84328572D01*
X100471429Y-84185715D01*
X100042857Y-84185715D01*
X99471429Y-84328572D01*
X99185714Y-84471429D01*
X98900000Y-84757143D01*
X98757143Y-85185715D01*
X98757143Y-85471429D01*
X98900000Y-85900000D01*
X99042857Y-86042857D01*
X98757143Y-86900000D02*
X98757143Y-88614286D01*
X101757143Y-87757143D02*
X98757143Y-87757143D01*
X101757143Y-91328571D02*
X100328571Y-90328571D01*
X101757143Y-89614286D02*
X98757143Y-89614286D01*
X98757143Y-90757143D01*
X98900000Y-91042857D01*
X99042857Y-91185714D01*
X99328571Y-91328571D01*
X99757143Y-91328571D01*
X100042857Y-91185714D01*
X100185714Y-91042857D01*
X100328571Y-90757143D01*
X100328571Y-89614286D01*
X98757143Y-93185714D02*
X98757143Y-93757143D01*
X98900000Y-94042857D01*
X99185714Y-94328571D01*
X99757143Y-94471429D01*
X100757143Y-94471429D01*
X101328571Y-94328571D01*
X101614286Y-94042857D01*
X101757143Y-93757143D01*
X101757143Y-93185714D01*
X101614286Y-92900000D01*
X101328571Y-92614286D01*
X100757143Y-92471429D01*
X99757143Y-92471429D01*
X99185714Y-92614286D01*
X98900000Y-92900000D01*
X98757143Y-93185714D01*
X101757143Y-97185714D02*
X101757143Y-95757143D01*
X98757143Y-95757143D01*
X100900000Y-98042857D02*
X100900000Y-99471428D01*
X101757143Y-97757142D02*
X98757143Y-98757142D01*
X101757143Y-99757142D01*
X100185714Y-101757143D02*
X100328571Y-102185714D01*
X100471429Y-102328571D01*
X100757143Y-102471428D01*
X101185714Y-102471428D01*
X101471429Y-102328571D01*
X101614286Y-102185714D01*
X101757143Y-101900000D01*
X101757143Y-100757143D01*
X98757143Y-100757143D01*
X98757143Y-101757143D01*
X98900000Y-102042857D01*
X99042857Y-102185714D01*
X99328571Y-102328571D01*
X99614286Y-102328571D01*
X99900000Y-102185714D01*
X100042857Y-102042857D01*
X100185714Y-101757143D01*
X100185714Y-100757143D01*
X83638096Y-59704762D02*
X83638096Y-57704762D01*
X83161905Y-57704762D01*
X82876191Y-57800000D01*
X82685715Y-57990476D01*
X82590476Y-58180952D01*
X82495238Y-58561905D01*
X82495238Y-58847619D01*
X82590476Y-59228571D01*
X82685715Y-59419048D01*
X82876191Y-59609524D01*
X83161905Y-59704762D01*
X83638096Y-59704762D01*
X81638096Y-59704762D02*
X81638096Y-57704762D01*
X80876191Y-57704762D01*
X80685715Y-57800000D01*
X80590476Y-57895238D01*
X80495238Y-58085714D01*
X80495238Y-58371429D01*
X80590476Y-58561905D01*
X80685715Y-58657143D01*
X80876191Y-58752381D01*
X81638096Y-58752381D01*
X79257143Y-58752381D02*
X79257143Y-59704762D01*
X79923810Y-57704762D02*
X79257143Y-58752381D01*
X78590476Y-57704762D01*
X78019048Y-59133333D02*
X77066667Y-59133333D01*
X78209524Y-59704762D02*
X77542857Y-57704762D01*
X76876190Y-59704762D01*
X83828572Y-72104762D02*
X83828572Y-70104762D01*
X83161905Y-71533333D01*
X82495238Y-70104762D01*
X82495238Y-72104762D01*
X80971429Y-70104762D02*
X80971429Y-71533333D01*
X81066667Y-71819048D01*
X81257143Y-72009524D01*
X81542858Y-72104762D01*
X81733334Y-72104762D01*
X78876190Y-71914286D02*
X78971428Y-72009524D01*
X79257143Y-72104762D01*
X79447619Y-72104762D01*
X79733333Y-72009524D01*
X79923809Y-71819048D01*
X80019048Y-71628571D01*
X80114286Y-71247619D01*
X80114286Y-70961905D01*
X80019048Y-70580952D01*
X79923809Y-70390476D01*
X79733333Y-70200000D01*
X79447619Y-70104762D01*
X79257143Y-70104762D01*
X78971428Y-70200000D01*
X78876190Y-70295238D01*
X78019048Y-72104762D02*
X78019048Y-70104762D01*
X76876190Y-72104762D02*
X77733333Y-70961905D01*
X76876190Y-70104762D02*
X78019048Y-71247619D01*
X72304762Y-65933333D02*
X73733333Y-65933333D01*
X74019048Y-65838095D01*
X74209524Y-65647619D01*
X74304762Y-65361904D01*
X74304762Y-65171428D01*
X74114286Y-68028572D02*
X74209524Y-67933334D01*
X74304762Y-67647619D01*
X74304762Y-67457143D01*
X74209524Y-67171429D01*
X74019048Y-66980953D01*
X73828571Y-66885714D01*
X73447619Y-66790476D01*
X73161905Y-66790476D01*
X72780952Y-66885714D01*
X72590476Y-66980953D01*
X72400000Y-67171429D01*
X72304762Y-67457143D01*
X72304762Y-67647619D01*
X72400000Y-67933334D01*
X72495238Y-68028572D01*
X74304762Y-68885714D02*
X72304762Y-68885714D01*
X74304762Y-70028572D02*
X73161905Y-69171429D01*
X72304762Y-70028572D02*
X73447619Y-68885714D01*
X74304762Y-71933334D02*
X74304762Y-70790476D01*
X74304762Y-71361905D02*
X72304762Y-71361905D01*
X72590476Y-71171429D01*
X72780952Y-70980953D01*
X72876190Y-70790476D01*
X83733334Y-82704762D02*
X83733334Y-80704762D01*
X83257143Y-80704762D01*
X82971429Y-80800000D01*
X82780953Y-80990476D01*
X82685714Y-81180952D01*
X82590476Y-81561905D01*
X82590476Y-81847619D01*
X82685714Y-82228571D01*
X82780953Y-82419048D01*
X82971429Y-82609524D01*
X83257143Y-82704762D01*
X83733334Y-82704762D01*
X81733334Y-82704762D02*
X81733334Y-80704762D01*
X80971429Y-80704762D01*
X80780953Y-80800000D01*
X80685714Y-80895238D01*
X80590476Y-81085714D01*
X80590476Y-81371429D01*
X80685714Y-81561905D01*
X80780953Y-81657143D01*
X80971429Y-81752381D01*
X81733334Y-81752381D01*
X79352381Y-81752381D02*
X79352381Y-82704762D01*
X80019048Y-80704762D02*
X79352381Y-81752381D01*
X78685714Y-80704762D01*
X76971428Y-82704762D02*
X78114286Y-82704762D01*
X77542857Y-82704762D02*
X77542857Y-80704762D01*
X77733333Y-80990476D01*
X77923809Y-81180952D01*
X78114286Y-81276190D01*
X72304762Y-87333333D02*
X73733333Y-87333333D01*
X74019048Y-87238095D01*
X74209524Y-87047619D01*
X74304762Y-86761904D01*
X74304762Y-86571428D01*
X74114286Y-89428572D02*
X74209524Y-89333334D01*
X74304762Y-89047619D01*
X74304762Y-88857143D01*
X74209524Y-88571429D01*
X74019048Y-88380953D01*
X73828571Y-88285714D01*
X73447619Y-88190476D01*
X73161905Y-88190476D01*
X72780952Y-88285714D01*
X72590476Y-88380953D01*
X72400000Y-88571429D01*
X72304762Y-88857143D01*
X72304762Y-89047619D01*
X72400000Y-89333334D01*
X72495238Y-89428572D01*
X74304762Y-90285714D02*
X72304762Y-90285714D01*
X74304762Y-91428572D02*
X73161905Y-90571429D01*
X72304762Y-91428572D02*
X73447619Y-90285714D01*
X72495238Y-92190476D02*
X72400000Y-92285714D01*
X72304762Y-92476191D01*
X72304762Y-92952381D01*
X72400000Y-93142857D01*
X72495238Y-93238095D01*
X72685714Y-93333334D01*
X72876190Y-93333334D01*
X73161905Y-93238095D01*
X74304762Y-92095238D01*
X74304762Y-93333334D01*
X83733334Y-99304762D02*
X83733334Y-97304762D01*
X83257143Y-97304762D01*
X82971429Y-97400000D01*
X82780953Y-97590476D01*
X82685714Y-97780952D01*
X82590476Y-98161905D01*
X82590476Y-98447619D01*
X82685714Y-98828571D01*
X82780953Y-99019048D01*
X82971429Y-99209524D01*
X83257143Y-99304762D01*
X83733334Y-99304762D01*
X81733334Y-99304762D02*
X81733334Y-97304762D01*
X80971429Y-97304762D01*
X80780953Y-97400000D01*
X80685714Y-97495238D01*
X80590476Y-97685714D01*
X80590476Y-97971429D01*
X80685714Y-98161905D01*
X80780953Y-98257143D01*
X80971429Y-98352381D01*
X81733334Y-98352381D01*
X79352381Y-98352381D02*
X79352381Y-99304762D01*
X80019048Y-97304762D02*
X79352381Y-98352381D01*
X78685714Y-97304762D01*
X78114286Y-97495238D02*
X78019048Y-97400000D01*
X77828571Y-97304762D01*
X77352381Y-97304762D01*
X77161905Y-97400000D01*
X77066667Y-97495238D01*
X76971428Y-97685714D01*
X76971428Y-97876190D01*
X77066667Y-98161905D01*
X78209524Y-99304762D01*
X76971428Y-99304762D01*
X72304762Y-107533333D02*
X73733333Y-107533333D01*
X74019048Y-107438095D01*
X74209524Y-107247619D01*
X74304762Y-106961904D01*
X74304762Y-106771428D01*
X74114286Y-109628572D02*
X74209524Y-109533334D01*
X74304762Y-109247619D01*
X74304762Y-109057143D01*
X74209524Y-108771429D01*
X74019048Y-108580953D01*
X73828571Y-108485714D01*
X73447619Y-108390476D01*
X73161905Y-108390476D01*
X72780952Y-108485714D01*
X72590476Y-108580953D01*
X72400000Y-108771429D01*
X72304762Y-109057143D01*
X72304762Y-109247619D01*
X72400000Y-109533334D01*
X72495238Y-109628572D01*
X74304762Y-110485714D02*
X72304762Y-110485714D01*
X74304762Y-111628572D02*
X73161905Y-110771429D01*
X72304762Y-111628572D02*
X73447619Y-110485714D01*
X72304762Y-112295238D02*
X72304762Y-113533334D01*
X73066667Y-112866667D01*
X73066667Y-113152381D01*
X73161905Y-113342857D01*
X73257143Y-113438095D01*
X73447619Y-113533334D01*
X73923810Y-113533334D01*
X74114286Y-113438095D01*
X74209524Y-113342857D01*
X74304762Y-113152381D01*
X74304762Y-112580953D01*
X74209524Y-112390476D01*
X74114286Y-112295238D01*
X82466667Y-108504762D02*
X82466667Y-109933333D01*
X82561905Y-110219048D01*
X82752381Y-110409524D01*
X83038096Y-110504762D01*
X83228572Y-110504762D01*
X80371428Y-110314286D02*
X80466666Y-110409524D01*
X80752381Y-110504762D01*
X80942857Y-110504762D01*
X81228571Y-110409524D01*
X81419047Y-110219048D01*
X81514286Y-110028571D01*
X81609524Y-109647619D01*
X81609524Y-109361905D01*
X81514286Y-108980952D01*
X81419047Y-108790476D01*
X81228571Y-108600000D01*
X80942857Y-108504762D01*
X80752381Y-108504762D01*
X80466666Y-108600000D01*
X80371428Y-108695238D01*
X79514286Y-110504762D02*
X79514286Y-108504762D01*
X78371428Y-110504762D02*
X79228571Y-109361905D01*
X78371428Y-108504762D02*
X79514286Y-109647619D01*
X76657143Y-109171429D02*
X76657143Y-110504762D01*
X77133333Y-108409524D02*
X77609524Y-109838095D01*
X76371428Y-109838095D01*
X86638096Y-120504762D02*
X86638096Y-118504762D01*
X86161905Y-118504762D01*
X85876191Y-118600000D01*
X85685715Y-118790476D01*
X85590476Y-118980952D01*
X85495238Y-119361905D01*
X85495238Y-119647619D01*
X85590476Y-120028571D01*
X85685715Y-120219048D01*
X85876191Y-120409524D01*
X86161905Y-120504762D01*
X86638096Y-120504762D01*
X84638096Y-120504762D02*
X84638096Y-118504762D01*
X83876191Y-118504762D01*
X83685715Y-118600000D01*
X83590476Y-118695238D01*
X83495238Y-118885714D01*
X83495238Y-119171429D01*
X83590476Y-119361905D01*
X83685715Y-119457143D01*
X83876191Y-119552381D01*
X84638096Y-119552381D01*
X82257143Y-119552381D02*
X82257143Y-120504762D01*
X82923810Y-118504762D02*
X82257143Y-119552381D01*
X81590476Y-118504762D01*
X81114286Y-118504762D02*
X79876190Y-118504762D01*
X80542857Y-119266667D01*
X80257143Y-119266667D01*
X80066667Y-119361905D01*
X79971429Y-119457143D01*
X79876190Y-119647619D01*
X79876190Y-120123810D01*
X79971429Y-120314286D01*
X80066667Y-120409524D01*
X80257143Y-120504762D01*
X80828571Y-120504762D01*
X81019048Y-120409524D01*
X81114286Y-120314286D01*
X78542857Y-121171429D02*
X78542857Y-118314286D01*
X76257143Y-119171429D02*
X76257143Y-120504762D01*
X76733333Y-118409524D02*
X77209524Y-119838095D01*
X75971428Y-119838095D01*
X73257143Y-115866666D02*
X73352381Y-116152380D01*
X73447619Y-116247619D01*
X73638095Y-116342857D01*
X73923810Y-116342857D01*
X74114286Y-116247619D01*
X74209524Y-116152380D01*
X74304762Y-115961904D01*
X74304762Y-115199999D01*
X72304762Y-115199999D01*
X72304762Y-115866666D01*
X72400000Y-116057142D01*
X72495238Y-116152380D01*
X72685714Y-116247619D01*
X72876190Y-116247619D01*
X73066667Y-116152380D01*
X73161905Y-116057142D01*
X73257143Y-115866666D01*
X73257143Y-115199999D01*
X73733333Y-117104761D02*
X73733333Y-118057142D01*
X74304762Y-116914285D02*
X72304762Y-117580952D01*
X74304762Y-118247619D01*
X72304762Y-118628571D02*
X72304762Y-119771428D01*
X74304762Y-119200000D02*
X72304762Y-119200000D01*
X72304762Y-120247619D02*
X72304762Y-121485715D01*
X73066667Y-120819048D01*
X73066667Y-121104762D01*
X73161905Y-121295238D01*
X73257143Y-121390476D01*
X73447619Y-121485715D01*
X73923810Y-121485715D01*
X74114286Y-121390476D01*
X74209524Y-121295238D01*
X74304762Y-121104762D01*
X74304762Y-120533334D01*
X74209524Y-120342857D01*
X74114286Y-120247619D01*
X74971429Y-122819048D02*
X72114286Y-122819048D01*
X72971429Y-125104762D02*
X74304762Y-125104762D01*
X72209524Y-124628572D02*
X73638095Y-124152381D01*
X73638095Y-125390477D01*
X73257143Y-97971428D02*
X73352381Y-98257142D01*
X73447619Y-98352381D01*
X73638095Y-98447619D01*
X73923810Y-98447619D01*
X74114286Y-98352381D01*
X74209524Y-98257142D01*
X74304762Y-98066666D01*
X74304762Y-97304761D01*
X72304762Y-97304761D01*
X72304762Y-97971428D01*
X72400000Y-98161904D01*
X72495238Y-98257142D01*
X72685714Y-98352381D01*
X72876190Y-98352381D01*
X73066667Y-98257142D01*
X73161905Y-98161904D01*
X73257143Y-97971428D01*
X73257143Y-97304761D01*
X73733333Y-99209523D02*
X73733333Y-100161904D01*
X74304762Y-99019047D02*
X72304762Y-99685714D01*
X74304762Y-100352381D01*
X72304762Y-100733333D02*
X72304762Y-101876190D01*
X74304762Y-101304762D02*
X72304762Y-101304762D01*
X72495238Y-102447619D02*
X72400000Y-102542857D01*
X72304762Y-102733334D01*
X72304762Y-103209524D01*
X72400000Y-103400000D01*
X72495238Y-103495238D01*
X72685714Y-103590477D01*
X72876190Y-103590477D01*
X73161905Y-103495238D01*
X74304762Y-102352381D01*
X74304762Y-103590477D01*
X73257143Y-76971428D02*
X73352381Y-77257142D01*
X73447619Y-77352381D01*
X73638095Y-77447619D01*
X73923810Y-77447619D01*
X74114286Y-77352381D01*
X74209524Y-77257142D01*
X74304762Y-77066666D01*
X74304762Y-76304761D01*
X72304762Y-76304761D01*
X72304762Y-76971428D01*
X72400000Y-77161904D01*
X72495238Y-77257142D01*
X72685714Y-77352381D01*
X72876190Y-77352381D01*
X73066667Y-77257142D01*
X73161905Y-77161904D01*
X73257143Y-76971428D01*
X73257143Y-76304761D01*
X73733333Y-78209523D02*
X73733333Y-79161904D01*
X74304762Y-78019047D02*
X72304762Y-78685714D01*
X74304762Y-79352381D01*
X72304762Y-79733333D02*
X72304762Y-80876190D01*
X74304762Y-80304762D02*
X72304762Y-80304762D01*
X74304762Y-82590477D02*
X74304762Y-81447619D01*
X74304762Y-82019048D02*
X72304762Y-82019048D01*
X72590476Y-81828572D01*
X72780952Y-81638096D01*
X72876190Y-81447619D01*
X73257143Y-54866666D02*
X73352381Y-55152380D01*
X73447619Y-55247619D01*
X73638095Y-55342857D01*
X73923810Y-55342857D01*
X74114286Y-55247619D01*
X74209524Y-55152380D01*
X74304762Y-54961904D01*
X74304762Y-54199999D01*
X72304762Y-54199999D01*
X72304762Y-54866666D01*
X72400000Y-55057142D01*
X72495238Y-55152380D01*
X72685714Y-55247619D01*
X72876190Y-55247619D01*
X73066667Y-55152380D01*
X73161905Y-55057142D01*
X73257143Y-54866666D01*
X73257143Y-54199999D01*
X73733333Y-56104761D02*
X73733333Y-57057142D01*
X74304762Y-55914285D02*
X72304762Y-56580952D01*
X74304762Y-57247619D01*
X72304762Y-57628571D02*
X72304762Y-58771428D01*
X74304762Y-58200000D02*
X72304762Y-58200000D01*
X73733333Y-59342857D02*
X73733333Y-60295238D01*
X74304762Y-59152381D02*
X72304762Y-59819048D01*
X74304762Y-60485715D01*
X201857143Y-113666666D02*
X201857143Y-114333333D01*
X202904762Y-114619047D02*
X202904762Y-113666666D01*
X200904762Y-113666666D01*
X200904762Y-114619047D01*
X200904762Y-115285714D02*
X202904762Y-116619048D01*
X200904762Y-116619048D02*
X202904762Y-115285714D01*
X202904762Y-117380952D02*
X200904762Y-117380952D01*
X200904762Y-118142857D01*
X201000000Y-118333333D01*
X201095238Y-118428572D01*
X201285714Y-118523810D01*
X201571429Y-118523810D01*
X201761905Y-118428572D01*
X201857143Y-118333333D01*
X201952381Y-118142857D01*
X201952381Y-117380952D01*
X201571429Y-120238095D02*
X202904762Y-120238095D01*
X200809524Y-119761905D02*
X202238095Y-119285714D01*
X202238095Y-120523810D01*
X201857143Y-95166666D02*
X201857143Y-95833333D01*
X202904762Y-96119047D02*
X202904762Y-95166666D01*
X200904762Y-95166666D01*
X200904762Y-96119047D01*
X200904762Y-96785714D02*
X202904762Y-98119048D01*
X200904762Y-98119048D02*
X202904762Y-96785714D01*
X202904762Y-98880952D02*
X200904762Y-98880952D01*
X200904762Y-99642857D01*
X201000000Y-99833333D01*
X201095238Y-99928572D01*
X201285714Y-100023810D01*
X201571429Y-100023810D01*
X201761905Y-99928572D01*
X201857143Y-99833333D01*
X201952381Y-99642857D01*
X201952381Y-98880952D01*
X200904762Y-100690476D02*
X200904762Y-101928572D01*
X201666667Y-101261905D01*
X201666667Y-101547619D01*
X201761905Y-101738095D01*
X201857143Y-101833333D01*
X202047619Y-101928572D01*
X202523810Y-101928572D01*
X202714286Y-101833333D01*
X202809524Y-101738095D01*
X202904762Y-101547619D01*
X202904762Y-100976191D01*
X202809524Y-100785714D01*
X202714286Y-100690476D01*
X201857143Y-76166666D02*
X201857143Y-76833333D01*
X202904762Y-77119047D02*
X202904762Y-76166666D01*
X200904762Y-76166666D01*
X200904762Y-77119047D01*
X200904762Y-77785714D02*
X202904762Y-79119048D01*
X200904762Y-79119048D02*
X202904762Y-77785714D01*
X202904762Y-79880952D02*
X200904762Y-79880952D01*
X200904762Y-80642857D01*
X201000000Y-80833333D01*
X201095238Y-80928572D01*
X201285714Y-81023810D01*
X201571429Y-81023810D01*
X201761905Y-80928572D01*
X201857143Y-80833333D01*
X201952381Y-80642857D01*
X201952381Y-79880952D01*
X201095238Y-81785714D02*
X201000000Y-81880952D01*
X200904762Y-82071429D01*
X200904762Y-82547619D01*
X201000000Y-82738095D01*
X201095238Y-82833333D01*
X201285714Y-82928572D01*
X201476190Y-82928572D01*
X201761905Y-82833333D01*
X202904762Y-81690476D01*
X202904762Y-82928572D01*
X201857143Y-56166666D02*
X201857143Y-56833333D01*
X202904762Y-57119047D02*
X202904762Y-56166666D01*
X200904762Y-56166666D01*
X200904762Y-57119047D01*
X200904762Y-57785714D02*
X202904762Y-59119048D01*
X200904762Y-59119048D02*
X202904762Y-57785714D01*
X202904762Y-59880952D02*
X200904762Y-59880952D01*
X200904762Y-60642857D01*
X201000000Y-60833333D01*
X201095238Y-60928572D01*
X201285714Y-61023810D01*
X201571429Y-61023810D01*
X201761905Y-60928572D01*
X201857143Y-60833333D01*
X201952381Y-60642857D01*
X201952381Y-59880952D01*
X202904762Y-62928572D02*
X202904762Y-61785714D01*
X202904762Y-62357143D02*
X200904762Y-62357143D01*
X201190476Y-62166667D01*
X201380952Y-61976191D01*
X201476190Y-61785714D01*
M02*
