M48
INCH,TZ
T1C0.012
T2C0.025
T3C0.032
T4C0.035
T5C0.039
T6C0.043
T7C0.059
%
G90
G05
T1
X29729Y-35535
X30319Y-27661
X32681Y-24905
X33858Y-40354
X33858Y-41929
X34055Y-45079
X34059Y-29629
X34059Y-36716
X34252Y-33858
X34646Y-42126
X34646Y-44291
X34843Y-40157
X34843Y-25394
X36815Y-22740
X36815Y-25299
X36815Y-27661
X36815Y-29629
X37205Y-40748
X37205Y-42717
X37402Y-35039
X37402Y-36811
X37402Y-45276
X37795Y-21358
X37800Y-26480
X37992Y-32283
X37992Y-45276
X38193Y-30811
X38287Y-22657
X38386Y-37795
X38390Y-23527
X38587Y-26874
X38780Y-37008
X38780Y-44882
X39173Y-25984
X39173Y-29724
X39173Y-43701
X40551Y-25394
X40551Y-36614
X40945Y-40157
X41142Y-33465
X41142Y-46260
X43602Y-41244
X43701Y-42717
X43799Y-34157
X43996Y-27661
X44882Y-39764
X44882Y-42520
X44886Y-26283
X44886Y-28842
X44886Y-32976
X44886Y-35338
X45866Y-46654
X46358Y-46161
X46461Y-26283
X46461Y-27661
X46850Y-39961
X46850Y-41142
X46855Y-32779
X46855Y-34157
X48626Y-24708
X48626Y-28842
X48720Y-35433
X48720Y-49409
X48819Y-38583
X48819Y-42520
X48823Y-31401
X48917Y-44980
X49213Y-25689
X49213Y-33071
X49311Y-40157
X49311Y-46752
X53740Y-21358
T2
X47051Y-48527
X47839Y-47740
X56299Y-49409
X56500Y-35338
X56594Y-28150
T3
X41925Y-30181
X41925Y-31181
X41925Y-32181
X41925Y-37071
X41925Y-38071
X41925Y-39071
X42008Y-43787
X42008Y-44787
X42008Y-45787
X42201Y-23511
X42201Y-24511
X42201Y-25511
X44925Y-30181
X44925Y-31181
X44925Y-32181
X44925Y-37071
X44925Y-38071
X44925Y-39071
X45008Y-43787
X45008Y-44787
X45008Y-45787
X45201Y-23511
X45201Y-24511
X45201Y-25511
T4
X33863Y-48330
X56496Y-42913
X59740Y-42713
X59744Y-28346
X59764Y-35531
X63780Y-46752
X67229Y-20968
X67421Y-35342
X67425Y-42622
X67445Y-28252
T5
X57874Y-22905
X57874Y-23905
X57874Y-24905
X57874Y-30582
X57874Y-31582
X57874Y-32582
X57874Y-37472
X57874Y-38472
X57874Y-39472
X57874Y-44559
X57874Y-45559
X57874Y-46559
T6
X59744Y-22299
X59744Y-25299
X59744Y-36866
X59744Y-39866
X59744Y-44149
X59744Y-47149
X59764Y-29779
X59764Y-32779
X76284Y-37897
X76284Y-40897
X76284Y-45181
X76284Y-48181
X76303Y-30811
X76303Y-33811
X76378Y-23819
X76378Y-26819
T7
X27165Y-21362
X27165Y-23520
X27165Y-30024
X27165Y-32181
X27166Y-25771
X27166Y-27952
X27166Y-34259
X27166Y-36417
X27166Y-38393
X27166Y-40551
X27166Y-42527
X27166Y-44685
X27166Y-46661
X27166Y-48818
X30614Y-41535
X30614Y-21362
X30614Y-26283
X30614Y-30417
X30614Y-45377
X30618Y-37110
X32772Y-41535
X32772Y-21362
X32772Y-26283
X32772Y-30417
X32772Y-45377
X32776Y-37110
X81008Y-21163
X81008Y-23330
X81008Y-25498
X81008Y-36517
X81008Y-38685
X81008Y-40852
X81008Y-43801
X81008Y-45968
X81008Y-48135
X81028Y-29037
X81028Y-31204
X81028Y-33372
T0
M30
