G04 #@! TF.FileFunction,Soldermask,Bot*
%FSLAX46Y46*%
G04 Gerber Fmt 4.6, Leading zero omitted, Abs format (unit mm)*
G04 Created by KiCad (PCBNEW 4.0.7-e2-6376~58~ubuntu16.04.1) date Wed May  2 00:30:33 2018*
%MOMM*%
%LPD*%
G01*
G04 APERTURE LIST*
%ADD10C,0.100000*%
%ADD11C,2.101600*%
%ADD12O,3.601600X3.601600*%
%ADD13R,2.101600X2.101600*%
%ADD14O,2.743200X1.422400*%
%ADD15C,3.601720*%
%ADD16R,2.301600X2.301600*%
%ADD17O,2.301600X2.301600*%
G04 APERTURE END LIST*
D10*
D11*
X138500000Y-118000000D03*
X138500000Y-99250000D03*
X138500000Y-82250000D03*
X138500000Y-63750000D03*
X138500000Y-57000000D03*
X148000000Y-123000000D03*
X148000000Y-105250000D03*
X148000000Y-87500000D03*
X148000000Y-68250000D03*
X111000000Y-56750000D03*
X111000000Y-53500000D03*
X108750000Y-72750000D03*
X108750000Y-68750000D03*
X108750000Y-90250000D03*
X108750000Y-85750000D03*
X108750000Y-107250000D03*
D12*
X130340760Y-115718820D03*
D13*
X147000760Y-118258820D03*
X147000760Y-115718820D03*
X147000760Y-113178820D03*
D12*
X130340760Y-97718820D03*
D13*
X147000760Y-100258820D03*
X147000760Y-97718820D03*
X147000760Y-95178820D03*
D12*
X130340760Y-80218820D03*
D13*
X147000760Y-82758820D03*
X147000760Y-80218820D03*
X147000760Y-77678820D03*
D12*
X130340760Y-60718820D03*
D13*
X147000760Y-63258820D03*
X147000760Y-60718820D03*
X147000760Y-58178820D03*
D14*
X106700760Y-111218820D03*
X106700760Y-113758820D03*
X114320760Y-113758820D03*
X114320760Y-111218820D03*
X106700760Y-116298820D03*
X114320760Y-116298820D03*
X106490000Y-94160000D03*
X106490000Y-96700000D03*
X114110000Y-96700000D03*
X114110000Y-94160000D03*
X106490000Y-99240000D03*
X114110000Y-99240000D03*
X106490000Y-76660000D03*
X106490000Y-79200000D03*
X114110000Y-79200000D03*
X114110000Y-76660000D03*
X106490000Y-81740000D03*
X114110000Y-81740000D03*
X107190760Y-59718820D03*
X107190760Y-62258820D03*
X114810760Y-62258820D03*
X114810760Y-59718820D03*
X107190760Y-64798820D03*
X114810760Y-64798820D03*
D15*
X83240000Y-105500000D03*
X77760000Y-105500000D03*
X205760760Y-111253820D03*
X205760760Y-116758820D03*
X205760760Y-122263820D03*
X77760760Y-115258820D03*
X83240760Y-115258820D03*
X69000760Y-118518820D03*
X69000760Y-123998820D03*
X69000760Y-108018820D03*
X69000760Y-113498820D03*
X205760760Y-92753820D03*
X205760760Y-98258820D03*
X205760760Y-103763820D03*
X77770760Y-94258820D03*
X83250760Y-94258820D03*
X205810760Y-73753820D03*
X205810760Y-79258820D03*
X205810760Y-84763820D03*
X69000760Y-97518820D03*
X69000760Y-102998820D03*
X69000760Y-87018820D03*
X69000760Y-92498820D03*
X77760760Y-77258820D03*
X83240760Y-77258820D03*
X205760760Y-53753820D03*
X205760760Y-59258820D03*
X205760760Y-64763820D03*
X69000000Y-76260000D03*
X69000000Y-81740000D03*
X69000760Y-65458820D03*
X69000760Y-70998820D03*
X83240760Y-54258820D03*
X77760760Y-54258820D03*
X69000000Y-59740000D03*
X69000000Y-54260000D03*
X83240760Y-66758820D03*
X77760760Y-66758820D03*
D16*
X193760760Y-114758820D03*
D17*
X193760760Y-122378820D03*
D16*
X151750760Y-119758820D03*
D17*
X151750760Y-112138820D03*
D16*
X151750760Y-101258820D03*
D17*
X151750760Y-93638820D03*
D16*
X193760760Y-96258820D03*
D17*
X193760760Y-103878820D03*
D16*
X151800760Y-83258820D03*
D17*
X151800760Y-75638820D03*
D16*
X193810760Y-78258820D03*
D17*
X193810760Y-85878820D03*
D16*
X151750760Y-64258820D03*
D17*
X151750760Y-56638820D03*
D16*
X194000000Y-60500000D03*
D17*
X194000000Y-68120000D03*
D11*
X108750000Y-103250000D03*
M02*
