G04 #@! TF.FileFunction,Copper,L2,Bot,Signal*
%FSLAX46Y46*%
G04 Gerber Fmt 4.6, Leading zero omitted, Abs format (unit mm)*
G04 Created by KiCad (PCBNEW 4.0.7-e2-6376~58~ubuntu16.04.1) date Wed May  2 00:30:32 2018*
%MOMM*%
%LPD*%
G01*
G04 APERTURE LIST*
%ADD10C,0.100000*%
%ADD11C,2.000000*%
%ADD12R,2.000000X2.000000*%
%ADD13O,2.641600X1.320800*%
%ADD14C,3.500120*%
%ADD15R,2.200000X2.200000*%
%ADD16O,2.200000X2.200000*%
%ADD17C,0.600000*%
%ADD18C,1.778000*%
%ADD19C,1.143000*%
%ADD20C,0.254000*%
%ADD21C,1.905000*%
%ADD22C,1.270000*%
G04 APERTURE END LIST*
D10*
D11*
X138500000Y-118000000D03*
X138500000Y-99250000D03*
X138500000Y-82250000D03*
X138500000Y-63750000D03*
X138500000Y-57000000D03*
X148000000Y-123000000D03*
X148000000Y-105250000D03*
X148000000Y-87500000D03*
X148000000Y-68250000D03*
X111000000Y-56750000D03*
X111000000Y-53500000D03*
X108750000Y-72750000D03*
X108750000Y-68750000D03*
X108750000Y-90250000D03*
X108750000Y-85750000D03*
X108750000Y-107250000D03*
D12*
X147000760Y-118258820D03*
X147000760Y-115718820D03*
X147000760Y-113178820D03*
X147000760Y-100258820D03*
X147000760Y-97718820D03*
X147000760Y-95178820D03*
X147000760Y-82758820D03*
X147000760Y-80218820D03*
X147000760Y-77678820D03*
X147000760Y-63258820D03*
X147000760Y-60718820D03*
X147000760Y-58178820D03*
D13*
X106700760Y-111218820D03*
X106700760Y-113758820D03*
X114320760Y-113758820D03*
X114320760Y-111218820D03*
X106700760Y-116298820D03*
X114320760Y-116298820D03*
X106490000Y-94160000D03*
X106490000Y-96700000D03*
X114110000Y-96700000D03*
X114110000Y-94160000D03*
X106490000Y-99240000D03*
X114110000Y-99240000D03*
X106490000Y-76660000D03*
X106490000Y-79200000D03*
X114110000Y-79200000D03*
X114110000Y-76660000D03*
X106490000Y-81740000D03*
X114110000Y-81740000D03*
X107190760Y-59718820D03*
X107190760Y-62258820D03*
X114810760Y-62258820D03*
X114810760Y-59718820D03*
X107190760Y-64798820D03*
X114810760Y-64798820D03*
D14*
X83240000Y-105500000D03*
X77760000Y-105500000D03*
X205760760Y-111253820D03*
X205760760Y-116758820D03*
X205760760Y-122263820D03*
X77760760Y-115258820D03*
X83240760Y-115258820D03*
X69000760Y-118518820D03*
X69000760Y-123998820D03*
X69000760Y-108018820D03*
X69000760Y-113498820D03*
X205760760Y-92753820D03*
X205760760Y-98258820D03*
X205760760Y-103763820D03*
X77770760Y-94258820D03*
X83250760Y-94258820D03*
X205810760Y-73753820D03*
X205810760Y-79258820D03*
X205810760Y-84763820D03*
X69000760Y-97518820D03*
X69000760Y-102998820D03*
X69000760Y-87018820D03*
X69000760Y-92498820D03*
X77760760Y-77258820D03*
X83240760Y-77258820D03*
X205760760Y-53753820D03*
X205760760Y-59258820D03*
X205760760Y-64763820D03*
X69000000Y-76260000D03*
X69000000Y-81740000D03*
X69000760Y-65458820D03*
X69000760Y-70998820D03*
X83240760Y-54258820D03*
X77760760Y-54258820D03*
X69000000Y-59740000D03*
X69000000Y-54260000D03*
X83240760Y-66758820D03*
X77760760Y-66758820D03*
D15*
X193760760Y-114758820D03*
D16*
X193760760Y-122378820D03*
D15*
X151750760Y-119758820D03*
D16*
X151750760Y-112138820D03*
D15*
X151750760Y-101258820D03*
D16*
X151750760Y-93638820D03*
D15*
X193760760Y-96258820D03*
D16*
X193760760Y-103878820D03*
D15*
X151800760Y-83258820D03*
D16*
X151800760Y-75638820D03*
D15*
X193810760Y-78258820D03*
D16*
X193810760Y-85878820D03*
D15*
X151750760Y-64258820D03*
D16*
X151750760Y-56638820D03*
D15*
X194000000Y-60500000D03*
D16*
X194000000Y-68120000D03*
D11*
X108750000Y-103250000D03*
D17*
X97250000Y-57550000D03*
X99500000Y-111000000D03*
X98500000Y-94000000D03*
X99500000Y-75500000D03*
X99500000Y-66000000D03*
X93510760Y-64258820D03*
X93510760Y-57758820D03*
X96000000Y-54250000D03*
X136500000Y-54250000D03*
X97500000Y-96000000D03*
X98500000Y-114000000D03*
X96500000Y-82000000D03*
X97510760Y-59758820D03*
X96010760Y-67258820D03*
X103000000Y-64500000D03*
X104500000Y-117500000D03*
X104000000Y-102000000D03*
X88500000Y-102000000D03*
X87000000Y-86000000D03*
X88500760Y-64500000D03*
X83010760Y-63258820D03*
X111750000Y-70258820D03*
X93510760Y-70258820D03*
X93510760Y-75258820D03*
X118010760Y-70258820D03*
X118010760Y-66758820D03*
D18*
X170760760Y-53258820D03*
D19*
X143750000Y-71500000D03*
D17*
X123510760Y-62758820D03*
X123510760Y-73258820D03*
X114010760Y-73258820D03*
X114010760Y-66758820D03*
X125000000Y-65250000D03*
X97010760Y-78258820D03*
X98010760Y-68258820D03*
D18*
X171310760Y-71758820D03*
D17*
X111250000Y-86758820D03*
X95000000Y-89000000D03*
X95000000Y-93500000D03*
X119010760Y-86758820D03*
X119010760Y-83258820D03*
X124010760Y-79758820D03*
X123750000Y-90000000D03*
D19*
X143510760Y-89758820D03*
D17*
X114010760Y-89758820D03*
X114010760Y-83758820D03*
X125000000Y-84000000D03*
X104500000Y-85000000D03*
X103000000Y-93000000D03*
D18*
X171260760Y-108258820D03*
D17*
X117750000Y-117250000D03*
D18*
X171250000Y-89769580D03*
D17*
X110750000Y-104758820D03*
D19*
X121510760Y-121258820D03*
D17*
X94500000Y-108500000D03*
X94500000Y-103500000D03*
X95000000Y-115000000D03*
X119000000Y-104500000D03*
X119000000Y-101500000D03*
D18*
X143500000Y-109000000D03*
D17*
X124250000Y-114250000D03*
X123750000Y-125500000D03*
D19*
X119510760Y-123258820D03*
D17*
X88000000Y-112500000D03*
X88000000Y-107000000D03*
X111000000Y-108500000D03*
X114000000Y-108000000D03*
X114000000Y-101000000D03*
X124000000Y-108000000D03*
X124000000Y-98000000D03*
D19*
X143000000Y-125500000D03*
D18*
X86010760Y-122758820D03*
D17*
X125250000Y-102000000D03*
X125250000Y-118750000D03*
X96500000Y-115000000D03*
X116500000Y-118500000D03*
D18*
X151750000Y-72000000D03*
X151800760Y-90248820D03*
X151740000Y-108490000D03*
X162000000Y-118750000D03*
D17*
X86510760Y-75258820D03*
X77010760Y-70258820D03*
X75510760Y-90258820D03*
X86510760Y-93258820D03*
X86000000Y-102500000D03*
X86000000Y-106500000D03*
X86500000Y-114500000D03*
D20*
X111000000Y-53500000D02*
X97750000Y-53500000D01*
X97250000Y-54000000D02*
X97750000Y-53500000D01*
X97250000Y-54000000D02*
X97250000Y-57550000D01*
X99500000Y-92000000D02*
X99500000Y-111000000D01*
X99500000Y-75000000D02*
X99500000Y-92000000D01*
X98500000Y-93000000D02*
X98500000Y-94000000D01*
X99500000Y-92000000D02*
X98500000Y-93000000D01*
X99500000Y-66000000D02*
X99500000Y-75000000D01*
X99500000Y-75000000D02*
X99500000Y-75500000D01*
X93510760Y-64258820D02*
X93510760Y-57758820D01*
D21*
X77760760Y-54258820D02*
X77760760Y-66758820D01*
D20*
X138500000Y-56250000D02*
X136500000Y-54250000D01*
X96010760Y-54260760D02*
X96010760Y-61258820D01*
X96000000Y-54250000D02*
X96010760Y-54260760D01*
X138500000Y-57000000D02*
X138500000Y-56250000D01*
X97500000Y-96000000D02*
X97500000Y-113000000D01*
X97500000Y-113000000D02*
X98500000Y-114000000D01*
X96500000Y-82000000D02*
X96500000Y-95000000D01*
X96500000Y-95000000D02*
X97500000Y-96000000D01*
X95500000Y-68500000D02*
X95500000Y-81000000D01*
X96010760Y-67989240D02*
X95500000Y-68500000D01*
X96010760Y-67258820D02*
X96010760Y-67989240D01*
X95500000Y-81000000D02*
X96500000Y-82000000D01*
X97510760Y-59758820D02*
X96010760Y-61258820D01*
X96010760Y-61258820D02*
X96010760Y-67258820D01*
X111000000Y-56750000D02*
X103750000Y-56750000D01*
X103000000Y-57500000D02*
X103000000Y-64500000D01*
X103750000Y-56750000D02*
X103000000Y-57500000D01*
X104000000Y-102000000D02*
X104500000Y-102500000D01*
X104500000Y-102500000D02*
X104500000Y-117500000D01*
X88500000Y-81500000D02*
X88500000Y-102000000D01*
X88500000Y-82500000D02*
X87500000Y-82500000D01*
X87500000Y-82500000D02*
X87000000Y-83000000D01*
X87000000Y-83000000D02*
X87000000Y-86000000D01*
X88500000Y-82500000D02*
X88500000Y-81500000D01*
X88500760Y-64500000D02*
X88500000Y-64500760D01*
X88500000Y-81500000D02*
X88500000Y-64500760D01*
X83240760Y-54258820D02*
X83240760Y-63028820D01*
X83240760Y-63028820D02*
X83010760Y-63258820D01*
X108750000Y-68750000D02*
X110241180Y-68750000D01*
X110241180Y-68750000D02*
X111750000Y-70258820D01*
X93510760Y-75258820D02*
X93510760Y-70258820D01*
X118010760Y-66758820D02*
X118010760Y-70258820D01*
D21*
X171255760Y-53753820D02*
X205760760Y-53753820D01*
X170760760Y-53258820D02*
X171255760Y-53753820D01*
D22*
X143750000Y-71500000D02*
X143808820Y-71441180D01*
D21*
X143808820Y-71441180D02*
X143800000Y-58178820D01*
X147000760Y-58178820D02*
X143800000Y-58178820D01*
D20*
X114010760Y-73258820D02*
X109258820Y-73258820D01*
X109258820Y-73258820D02*
X108750000Y-72750000D01*
X123510760Y-62758820D02*
X123510760Y-73258820D01*
X114010760Y-66758820D02*
X114010760Y-73258820D01*
X126500000Y-63750000D02*
X138500000Y-63750000D01*
X125000000Y-65250000D02*
X126500000Y-63750000D01*
X97010760Y-69258820D02*
X97010760Y-78258820D01*
X98010760Y-68258820D02*
X97010760Y-69258820D01*
D22*
X171310760Y-71758820D02*
X171400000Y-71758820D01*
X171400000Y-71758820D02*
X171310760Y-71758820D01*
D20*
X108750000Y-85750000D02*
X110241180Y-85750000D01*
X110241180Y-85750000D02*
X111250000Y-86758820D01*
X95000000Y-93500000D02*
X95000000Y-89000000D01*
X119010760Y-83258820D02*
X119010760Y-86758820D01*
D21*
X203810760Y-71758820D02*
X205805760Y-73753820D01*
X171310760Y-71758820D02*
X203810760Y-71758820D01*
X205805760Y-73753820D02*
X205810760Y-73753820D01*
D20*
X124010760Y-79758820D02*
X124010760Y-89739240D01*
X124010760Y-89739240D02*
X123750000Y-90000000D01*
X114010760Y-89758820D02*
X109241180Y-89758820D01*
X109241180Y-89758820D02*
X108750000Y-90250000D01*
D21*
X143510760Y-89758820D02*
X143510760Y-77689240D01*
X143510760Y-77689240D02*
X143521180Y-77678820D01*
X143521180Y-77678820D02*
X147000760Y-77678820D01*
D20*
X114010760Y-83758820D02*
X114010760Y-89758820D01*
D22*
X146920760Y-77758820D02*
X147000760Y-77678820D01*
D20*
X136500000Y-82250000D02*
X134750000Y-84000000D01*
X134750000Y-84000000D02*
X125000000Y-84000000D01*
X138500000Y-82250000D02*
X136500000Y-82250000D01*
X104500000Y-91500000D02*
X104500000Y-85000000D01*
X103000000Y-93000000D02*
X104500000Y-91500000D01*
D21*
X171260760Y-108258820D02*
X204260760Y-108258820D01*
X204260760Y-108258820D02*
X205760760Y-109758820D01*
D20*
X117750000Y-117250000D02*
X117750000Y-120258820D01*
X117750000Y-120258820D02*
X117750000Y-119750000D01*
X117750000Y-119750000D02*
X117750000Y-120258820D01*
D21*
X171250000Y-89769580D02*
X171260760Y-89758820D01*
D20*
X110750000Y-104758820D02*
X109241180Y-103250000D01*
X109241180Y-103250000D02*
X108750000Y-103250000D01*
D21*
X118500000Y-120258820D02*
X117750000Y-120258820D01*
X117750000Y-120258820D02*
X120510760Y-120258820D01*
X120510760Y-120258820D02*
X121510760Y-121258820D01*
D20*
X94500000Y-103500000D02*
X94500000Y-108500000D01*
X95500000Y-119258820D02*
X95500000Y-115500000D01*
X95500000Y-115500000D02*
X95000000Y-115000000D01*
X118500000Y-120258820D02*
X118500000Y-120000000D01*
X118500000Y-120000000D02*
X118500000Y-120258820D01*
X119000000Y-101500000D02*
X119000000Y-104500000D01*
D21*
X98010760Y-120258820D02*
X118500000Y-120258820D01*
X97010760Y-119258820D02*
X98010760Y-120258820D01*
X95500000Y-119258820D02*
X97010760Y-119258820D01*
X77760760Y-117008820D02*
X80010760Y-119258820D01*
X80010760Y-119258820D02*
X95500000Y-119258820D01*
X77760760Y-115258820D02*
X77760760Y-117008820D01*
X205760760Y-109758820D02*
X205760760Y-111253820D01*
X203760760Y-89758820D02*
X205760760Y-91758820D01*
X171260760Y-89758820D02*
X203760760Y-89758820D01*
X205760760Y-91758820D02*
X205760760Y-92753820D01*
X143500000Y-107750000D02*
X143500000Y-109000000D01*
X143500000Y-95500000D02*
X143821180Y-95178820D01*
X147000760Y-95178820D02*
X143821180Y-95178820D01*
X143500000Y-107750000D02*
X143500000Y-95500000D01*
D20*
X124250000Y-114250000D02*
X123750000Y-114750000D01*
X123750000Y-114750000D02*
X123750000Y-125500000D01*
X111000000Y-108500000D02*
X110000000Y-108500000D01*
X110000000Y-108500000D02*
X108750000Y-107250000D01*
D21*
X86510760Y-123258820D02*
X119510760Y-123258820D01*
D20*
X88000000Y-107000000D02*
X88000000Y-112500000D01*
X110500000Y-116000000D02*
X110500000Y-109000000D01*
X110798820Y-116298820D02*
X110500000Y-116000000D01*
X114320760Y-116298820D02*
X110798820Y-116298820D01*
X110500000Y-109000000D02*
X111000000Y-108500000D01*
X114000000Y-101000000D02*
X114000000Y-108000000D01*
X124000000Y-98000000D02*
X124000000Y-108000000D01*
D21*
X143090760Y-124000000D02*
X143090760Y-125409240D01*
D22*
X143090760Y-125409240D02*
X143000000Y-125500000D01*
D21*
X147000760Y-113178820D02*
X143090760Y-113178820D01*
X143090760Y-113178820D02*
X143090760Y-124000000D01*
D22*
X143090760Y-124000000D02*
X143090760Y-124178820D01*
D21*
X86510760Y-123258820D02*
X86010760Y-122758820D01*
X86010760Y-122758820D02*
X86510760Y-123258820D01*
D20*
X138500000Y-99250000D02*
X137500000Y-99250000D01*
X137500000Y-99250000D02*
X134750000Y-102000000D01*
X134750000Y-102000000D02*
X125250000Y-102000000D01*
X138500000Y-118000000D02*
X135750000Y-118000000D01*
X135000000Y-118750000D02*
X125250000Y-118750000D01*
X135750000Y-118000000D02*
X135000000Y-118750000D01*
X99500000Y-118500000D02*
X116500000Y-118500000D01*
X96500000Y-115000000D02*
X99500000Y-118500000D01*
D21*
X151750760Y-71999240D02*
X151750760Y-64258820D01*
X151750000Y-72000000D02*
X151750760Y-71999240D01*
X151800760Y-83258820D02*
X151800760Y-90248820D01*
X151750760Y-101258820D02*
X151740000Y-108490000D01*
X160991180Y-119758820D02*
X162000000Y-118750000D01*
X151750760Y-119758820D02*
X160991180Y-119758820D01*
D20*
X86010760Y-74758820D02*
X86510760Y-75258820D01*
X81510760Y-74758820D02*
X86010760Y-74758820D01*
X77010760Y-70258820D02*
X81510760Y-74758820D01*
X83510760Y-90258820D02*
X75510760Y-90258820D01*
X86510760Y-93258820D02*
X83510760Y-90258820D01*
X75000000Y-102500000D02*
X86000000Y-102500000D01*
X69481180Y-108018820D02*
X75000000Y-102500000D01*
X69000760Y-108018820D02*
X69481180Y-108018820D01*
X86000000Y-106500000D02*
X86500000Y-107000000D01*
X86500000Y-107000000D02*
X86500000Y-114500000D01*
X147000760Y-63258820D02*
X147000760Y-67250760D01*
X147000760Y-67250760D02*
X148000000Y-68250000D01*
X147000760Y-82758820D02*
X147000760Y-86500760D01*
X147000760Y-86500760D02*
X148000000Y-87500000D01*
X147000760Y-100258820D02*
X147000760Y-104250760D01*
X147000760Y-104250760D02*
X148000000Y-105250000D01*
X147000760Y-118258820D02*
X147000760Y-122000760D01*
X147000760Y-122000760D02*
X148000000Y-123000000D01*
M02*
