G04 #@! TF.FileFunction,Soldermask,Top*
%FSLAX46Y46*%
G04 Gerber Fmt 4.6, Leading zero omitted, Abs format (unit mm)*
G04 Created by KiCad (PCBNEW 4.0.7-e2-6376~58~ubuntu16.04.1) date Wed May  2 00:30:33 2018*
%MOMM*%
%LPD*%
G01*
G04 APERTURE LIST*
%ADD10C,0.100000*%
%ADD11R,5.101600X3.101600*%
%ADD12R,1.401600X0.801600*%
%ADD13R,0.801600X1.401600*%
%ADD14O,3.601600X3.601600*%
%ADD15R,2.101600X2.101600*%
%ADD16R,0.901600X1.001600*%
%ADD17R,1.001600X0.901600*%
%ADD18O,2.743200X1.422400*%
%ADD19C,3.601720*%
%ADD20R,2.061600X3.251600*%
%ADD21R,2.301600X2.301600*%
%ADD22O,2.301600X2.301600*%
%ADD23R,1.351600X1.101600*%
%ADD24R,1.101600X1.351600*%
G04 APERTURE END LIST*
D10*
D11*
X186950000Y-85950000D03*
X165450000Y-85950000D03*
X165450000Y-72450000D03*
X186950000Y-72450000D03*
X186900000Y-122650000D03*
X165400000Y-122650000D03*
X165400000Y-109150000D03*
X186900000Y-109150000D03*
D12*
X88000760Y-114558820D03*
X88000760Y-116458820D03*
X90500760Y-116458820D03*
X90500760Y-114558820D03*
X88010760Y-103808820D03*
X88010760Y-105708820D03*
X90510760Y-105708820D03*
X90510760Y-103808820D03*
X119250000Y-111050000D03*
X119250000Y-112950000D03*
X119000000Y-94050000D03*
X119000000Y-95950000D03*
X123000760Y-115308820D03*
X123000760Y-117208820D03*
X122000760Y-98308820D03*
X122000760Y-100208820D03*
X119250000Y-117200000D03*
X119250000Y-115300000D03*
X119000760Y-100208820D03*
X119000760Y-98308820D03*
D13*
X102500000Y-110950000D03*
X100600000Y-110950000D03*
X101460760Y-94258820D03*
X99560760Y-94258820D03*
X102460760Y-113258820D03*
X100560760Y-113258820D03*
X101460760Y-96758820D03*
X99560760Y-96758820D03*
D12*
X88500760Y-93808820D03*
X88500760Y-95708820D03*
X91000760Y-95708820D03*
X91000760Y-93808820D03*
X119000000Y-76250000D03*
X119000000Y-78150000D03*
X122000760Y-80308820D03*
X122000760Y-82208820D03*
X119000760Y-82208820D03*
X119000760Y-80308820D03*
D13*
X101460760Y-77258820D03*
X99560760Y-77258820D03*
X101460760Y-80258820D03*
X99560760Y-80258820D03*
D12*
X88500760Y-76808820D03*
X88500760Y-78708820D03*
X91000760Y-78708820D03*
X91000760Y-76808820D03*
X119000000Y-57550000D03*
X119000000Y-59450000D03*
X122000760Y-63308820D03*
X122000760Y-65208820D03*
X119000760Y-65208820D03*
X119000760Y-63308820D03*
D13*
X101000000Y-55700000D03*
X99100000Y-55700000D03*
X100960760Y-59258820D03*
X99060760Y-59258820D03*
D12*
X91000760Y-65808820D03*
X91000760Y-67708820D03*
X88500760Y-67708820D03*
X88500760Y-65808820D03*
D14*
X130340760Y-115718820D03*
D15*
X147000760Y-118258820D03*
X147000760Y-115718820D03*
X147000760Y-113178820D03*
D14*
X130340760Y-97718820D03*
D15*
X147000760Y-100258820D03*
X147000760Y-97718820D03*
X147000760Y-95178820D03*
D16*
X121560760Y-113258820D03*
X123460760Y-113258820D03*
X122510760Y-111258820D03*
X122050760Y-96258820D03*
X123950760Y-96258820D03*
X123000760Y-94258820D03*
D17*
X100510760Y-115308820D03*
X100510760Y-117208820D03*
X102510760Y-116258820D03*
X99510760Y-99308820D03*
X99510760Y-101208820D03*
X101510760Y-100258820D03*
D14*
X130340760Y-80218820D03*
D15*
X147000760Y-82758820D03*
X147000760Y-80218820D03*
X147000760Y-77678820D03*
D16*
X122050760Y-78258820D03*
X123950760Y-78258820D03*
X123000760Y-76258820D03*
D17*
X99510760Y-83308820D03*
X99510760Y-85208820D03*
X101510760Y-84258820D03*
D14*
X130340760Y-60718820D03*
D15*
X147000760Y-63258820D03*
X147000760Y-60718820D03*
X147000760Y-58178820D03*
D16*
X122050760Y-61258820D03*
X123950760Y-61258820D03*
X123000760Y-59258820D03*
D17*
X99050000Y-61750000D03*
X99050000Y-63650000D03*
X101050000Y-62700000D03*
D18*
X106700760Y-111218820D03*
X106700760Y-113758820D03*
X114320760Y-113758820D03*
X114320760Y-111218820D03*
X106700760Y-116298820D03*
X114320760Y-116298820D03*
X106490000Y-94160000D03*
X106490000Y-96700000D03*
X114110000Y-96700000D03*
X114110000Y-94160000D03*
X106490000Y-99240000D03*
X114110000Y-99240000D03*
X106490000Y-76660000D03*
X106490000Y-79200000D03*
X114110000Y-79200000D03*
X114110000Y-76660000D03*
X106490000Y-81740000D03*
X114110000Y-81740000D03*
X107190760Y-59718820D03*
X107190760Y-62258820D03*
X114810760Y-62258820D03*
X114810760Y-59718820D03*
X107190760Y-64798820D03*
X114810760Y-64798820D03*
D19*
X83240000Y-105500000D03*
X77760000Y-105500000D03*
X205760760Y-111253820D03*
X205760760Y-116758820D03*
X205760760Y-122263820D03*
X77760760Y-115258820D03*
X83240760Y-115258820D03*
X69000760Y-118518820D03*
X69000760Y-123998820D03*
X69000760Y-108018820D03*
X69000760Y-113498820D03*
X205760760Y-92753820D03*
X205760760Y-98258820D03*
X205760760Y-103763820D03*
X77770760Y-94258820D03*
X83250760Y-94258820D03*
X205810760Y-73753820D03*
X205810760Y-79258820D03*
X205810760Y-84763820D03*
X69000760Y-97518820D03*
X69000760Y-102998820D03*
X69000760Y-87018820D03*
X69000760Y-92498820D03*
X77760760Y-77258820D03*
X83240760Y-77258820D03*
X205760760Y-53753820D03*
X205760760Y-59258820D03*
X205760760Y-64763820D03*
X69000000Y-76260000D03*
X69000000Y-81740000D03*
X69000760Y-65458820D03*
X69000760Y-70998820D03*
X83240760Y-54258820D03*
X77760760Y-54258820D03*
X69000000Y-59740000D03*
X69000000Y-54260000D03*
X83240760Y-66758820D03*
X77760760Y-66758820D03*
D20*
X78040760Y-60258820D03*
X82960760Y-60258820D03*
X194290000Y-108250000D03*
X199210000Y-108250000D03*
X82960760Y-122758820D03*
X78040760Y-122758820D03*
X194300760Y-91258820D03*
X199220760Y-91258820D03*
X82970760Y-99758820D03*
X78050760Y-99758820D03*
X194350760Y-73258820D03*
X199270760Y-73258820D03*
X82960760Y-83758820D03*
X78040760Y-83758820D03*
X194300760Y-54258820D03*
X199220760Y-54258820D03*
D21*
X193760760Y-114758820D03*
D22*
X193760760Y-122378820D03*
D21*
X151750760Y-119758820D03*
D22*
X151750760Y-112138820D03*
D21*
X151750760Y-101258820D03*
D22*
X151750760Y-93638820D03*
D21*
X193760760Y-96258820D03*
D22*
X193760760Y-103878820D03*
D21*
X151800760Y-83258820D03*
D22*
X151800760Y-75638820D03*
D21*
X193810760Y-78258820D03*
D22*
X193810760Y-85878820D03*
D21*
X151750760Y-64258820D03*
D22*
X151750760Y-56638820D03*
D21*
X194000000Y-60500000D03*
D22*
X194000000Y-68120000D03*
D23*
X93010760Y-114758820D03*
X93010760Y-116758820D03*
D24*
X157510760Y-121508820D03*
X155510760Y-121508820D03*
X157510760Y-119508820D03*
X155510760Y-119508820D03*
X157510760Y-117508820D03*
X155510760Y-117508820D03*
D23*
X93010760Y-103758820D03*
X93010760Y-105758820D03*
D24*
X157510760Y-115508820D03*
X155510760Y-115508820D03*
X157510760Y-113508820D03*
X155510760Y-113508820D03*
X157510760Y-111508820D03*
X155510760Y-111508820D03*
D23*
X140500000Y-123500000D03*
X140500000Y-125500000D03*
X141000760Y-105758820D03*
X141000760Y-107758820D03*
D24*
X157462356Y-103513692D03*
X155462356Y-103513692D03*
D23*
X137000000Y-123500000D03*
X137000000Y-125500000D03*
X137000760Y-105758820D03*
X137000760Y-107758820D03*
D24*
X157462356Y-101513692D03*
X155462356Y-101513692D03*
D23*
X133500000Y-123500000D03*
X133500000Y-125500000D03*
X133000760Y-105758820D03*
X133000760Y-107758820D03*
D24*
X157462356Y-99513692D03*
X155462356Y-99513692D03*
X157462356Y-97513692D03*
X155462356Y-97513692D03*
X157462356Y-95513692D03*
X155462356Y-95513692D03*
X157462356Y-93513692D03*
X155462356Y-93513692D03*
D23*
X93500000Y-121900000D03*
X93500000Y-123900000D03*
X93300000Y-98700000D03*
X93300000Y-100700000D03*
X91100000Y-121900000D03*
X91100000Y-123900000D03*
X91050000Y-98700000D03*
X91050000Y-100700000D03*
X88700000Y-121900000D03*
X88700000Y-123900000D03*
X88800000Y-98700000D03*
X88800000Y-100700000D03*
X93500760Y-93758820D03*
X93500760Y-95758820D03*
X141000760Y-87758820D03*
X141000760Y-89758820D03*
D24*
X157310760Y-85258820D03*
X155310760Y-85258820D03*
D23*
X137000760Y-87758820D03*
X137000760Y-89758820D03*
D24*
X157310760Y-83258820D03*
X155310760Y-83258820D03*
D23*
X133000760Y-87758820D03*
X133000760Y-89758820D03*
D24*
X157310760Y-81258820D03*
X155310760Y-81258820D03*
X157310760Y-79258820D03*
X155310760Y-79258820D03*
X157310760Y-77258820D03*
X155310760Y-77258820D03*
X157310760Y-75258820D03*
X155310760Y-75258820D03*
D23*
X93300000Y-83950000D03*
X93300000Y-85950000D03*
X91050000Y-83950000D03*
X91050000Y-85950000D03*
X88800000Y-83950000D03*
X88800000Y-85950000D03*
X93500760Y-76758820D03*
X93500760Y-78758820D03*
X141000760Y-68258820D03*
X141000760Y-70258820D03*
D24*
X157260760Y-66758820D03*
X155260760Y-66758820D03*
D23*
X137000760Y-68258820D03*
X137000760Y-70258820D03*
D24*
X157260760Y-64758820D03*
X155260760Y-64758820D03*
D23*
X133000760Y-68258820D03*
X133000760Y-70258820D03*
D24*
X157260760Y-62758820D03*
X155260760Y-62758820D03*
X157260760Y-60758820D03*
X155260760Y-60758820D03*
X157260760Y-58758820D03*
X155260760Y-58758820D03*
X157260760Y-56758820D03*
X155260760Y-56758820D03*
D23*
X93300000Y-59200000D03*
X93300000Y-61200000D03*
X88800000Y-59200000D03*
X88800000Y-61200000D03*
X91050000Y-59200000D03*
X91050000Y-61200000D03*
X93500760Y-65758820D03*
X93500760Y-67758820D03*
D11*
X186900000Y-67750000D03*
X165400000Y-67750000D03*
X165400000Y-54250000D03*
X186900000Y-54250000D03*
X186900000Y-104150000D03*
X165400000Y-104150000D03*
X165400000Y-90650000D03*
X186900000Y-90650000D03*
M02*
